<svg width="88" height="88" viewBox="0 0 88 88" fill="none" xmlns="http://www.w3.org/2000/svg">
<path fill-rule="evenodd" clip-rule="evenodd" d="M63.5999 25.1002C63.2139 25.1002 62.8999 24.7862 62.8999 24.4002C62.8999 24.0142 63.2139 23.7002 63.5999 23.7002C63.9859 23.7002 64.2999 24.0142 64.2999 24.4002C64.2999 24.7862 63.9859 25.1002 63.5999 25.1002Z" fill="#ECECFE"/>
<path fill-rule="evenodd" clip-rule="evenodd" d="M44.7 69.1998C44.314 69.1998 44 68.8858 44 68.4998C44 68.1138 44.314 67.7998 44.7 67.7998C45.086 67.7998 45.4 68.1138 45.4 68.4998C45.4 68.8858 45.086 69.1998 44.7 69.1998Z" fill="#ECECFE"/>
<path fill-rule="evenodd" clip-rule="evenodd" d="M26.5 22.9996C26.1141 22.9996 25.8 22.6856 25.8 22.2996C25.8 21.9136 26.1141 21.5996 26.5 21.5996C26.886 21.5996 27.2 21.9136 27.2 22.2996C27.2 22.6856 26.886 22.9996 26.5 22.9996Z" fill="#ECECFE"/>
<path d="M45.4001 39.8004C45.4001 39.0272 44.7733 38.4004 44.0001 38.4004C43.2269 38.4004 42.6001 39.0272 42.6001 39.8004V51.0004C42.6001 51.7736 43.2269 52.4004 44.0001 52.4004C44.7733 52.4004 45.4001 51.7736 45.4001 51.0004V39.8004Z" fill="#E1000F"/>
<path d="M45.4001 56.6004C45.4001 55.8272 44.7733 55.2004 44.0001 55.2004C43.2269 55.2004 42.6001 55.8272 42.6001 56.6004C42.6001 57.3736 43.2269 58.0004 44.0001 58.0004C44.7733 58.0004 45.4001 57.3736 45.4001 56.6004Z" fill="#E1000F"/>
<path d="M43.374 24.7873C43.6184 24.2986 44.292 24.2728 44.5816 24.7102L44.6262 24.7873L63.5262 62.5873C63.7466 63.0283 63.4545 63.543 62.9807 63.5959L62.9001 63.6004H57.3001C56.9135 63.6004 56.6001 63.287 56.6001 62.9004C56.6001 62.5414 56.8703 62.2455 57.2184 62.2051L57.3001 62.2004H61.7668L44.0001 26.6656L26.2327 62.2004H53.1001C53.4591 62.2004 53.7549 62.4706 53.7954 62.8188L53.8001 62.9004C53.8001 63.2594 53.5298 63.5552 53.1817 63.5957L53.1001 63.6004H25.1001C24.6071 63.6004 24.2774 63.1089 24.4419 62.6614L24.474 62.5873L43.374 24.7873Z" fill="#000091"/>
<path d="M58.0001 48.2004C57.6141 48.2004 57.3001 47.8864 57.3001 47.5004C57.3001 47.1144 57.6141 46.8004 58.0001 46.8004C58.3861 46.8004 58.7001 47.1144 58.7001 47.5004C58.7001 47.8864 58.3861 48.2004 58.0001 48.2004Z" fill="#000091"/>
<path d="M59.9855 49.9164C59.7936 49.6231 59.4081 49.5138 59.087 49.6743C58.7412 49.8472 58.6011 50.2677 58.774 50.6134L63.674 60.4134L63.7147 60.4844C63.9066 60.7776 64.292 60.887 64.6131 60.7265C64.9589 60.5536 65.0991 60.1331 64.9262 59.7873L60.0262 49.9873L59.9855 49.9164Z" fill="#000091"/>
</svg>
