<svg width="1440" height="416" viewBox="0 0 1440 416" fill="none" xmlns="http://www.w3.org/2000/svg">
<g clip-path="url(#clip0_1_18)">
<path d="M37.7529 608.567C35.7532 606.202 33.3896 605.188 31.2389 602.239C4.22254 565.177 -38.7412 529.318 -61.2114 488.914C-63.213 485.311 -66.0312 480.603 -66.0098 476.473C-65.9071 476.358 -65.0124 474.163 -64.802 473.651C-60.0358 469.033 -55.1813 464.39 -50.5811 459.599C-49.8692 458.857 -49.6728 457.614 -49.3605 457.287C-48.1947 456.066 -47.3031 454.73 -46.5658 453.967C-33.213 440.104 -29.8797 460.575 -21.9442 467C-4.91544 480.791 17.3214 466.51 17.7864 446.047C18.0408 434.794 10.2627 423.803 2.73548 416.023C-1.36232 411.79 -6.93706 410.892 -2.06351 402.792C10.7046 390.698 22.7086 377.786 36.7234 367.079C37.9582 367.223 40.2055 367.914 41.129 367.788C54.5892 376.194 62.2206 391.207 72.4126 402.627C78.032 408.924 86.7323 419.548 94.7811 410.168C101.853 401.928 99.5437 391.88 104.588 384.239C106.082 381.979 112.026 378.722 114.709 378.481C124.363 377.619 136.27 381.543 143.187 388.434C157.306 402.492 155.695 429.8 135.031 436.313C129.36 438.102 110.575 437.167 116.607 448.58C120.13 455.246 129.109 464.069 133.7 471.281C137.643 477.473 150.202 499.697 149.159 506.218C148.686 509.155 145.493 512.408 143.576 514.684C134.857 525.02 115.46 537.269 115.449 552.029C115.441 560.682 127.804 559.894 133.632 561.602C150.258 566.475 157.208 586.742 149.212 601.606C136.008 626.147 105.996 629.939 98.6226 599.27C97.7164 595.496 96.5173 577.781 90.6243 577.974C88.4113 578.046 69.0839 597.445 65.3923 600.545C57.3427 607.317 48.4471 616.527 37.7618 608.557L37.7529 608.567Z" fill="#FDDFDB"/>
<path d="M-16.3119 436.196C-16.9972 436.906 -17.8253 438.144 -18.9094 439.283L-58.3093 444.855C-59.271 445.972 -59.4841 444.699 -59.6742 444.635C-63.7744 443.27 -67.6416 440.711 -72.0877 439.131L-117.56 112.885C-117.409 112.79 -117.226 111.676 -116.626 111.286C-102.387 102.075 -88.5939 92.131 -74.4163 82.8176L-70.8162 83.5947L-39.5503 102.319C-38.6781 105.661 -32.09 141.029 -31.4365 152.21C-48.4841 161.425 -60.3752 185.688 -54.4912 204.575C-51.1648 215.261 -42.1721 226.727 -33.0849 233.151C-31.3638 234.368 -24.7557 237.678 -24.4634 238.079C-23.6765 239.165 -18.3457 309.926 -18.0157 316.404C-24.2215 321.74 -30.3729 327.456 -34.3079 334.795C-47.5626 359.526 -33.1715 381.855 -17.0792 399.656C-16.4677 400.333 -15.0704 400.521 -14.9068 400.772C-14.5937 401.255 -15.5321 404.486 -15.5336 405.762C-15.5558 415.946 -15.4322 426.048 -16.3086 436.197L-16.3119 436.196Z" fill="#4E6E53"/>
<path d="M70.9059 176.328C176.18 178.625 179.195 334.873 77.6849 350.313C74.2682 350.86 71.3391 351.433 68.1397 351.373C63.6832 351.261 59.286 350.347 54.9273 349.462C13.1942 340.879 -20.7285 303.702 -16.404 259.768C-12.8735 214.947 26.9759 179.51 70.8417 176.334L70.9053 176.331L70.9059 176.328ZM13.6975 294.703C13.8598 295.427 14.7981 296.057 15.9544 296.51C43.793 305.106 93.9249 315.478 119.838 299.666C126.495 295.334 128.874 288.234 128.422 280.542C127.603 266.093 113.116 259.058 97.7732 260.019C93.2555 260.266 88.7056 261.25 84.5749 262.806C81.6602 263.866 78.7773 265.122 75.7156 265.713C72.2583 266.43 68.5877 266.161 65.0959 266.184C53.0412 266.016 61.8468 279.429 49.3454 280.426C46.702 280.689 44.1506 280.504 41.5237 280.417C37.2018 280.17 34.7871 280.849 33.1663 285.034C32.1723 287.638 30.6703 289.498 27.8483 290.044C24.9843 290.893 13.6367 290.872 13.6908 294.662L13.698 294.7L13.6975 294.703ZM49.1492 261.511C50.66 259.988 53.2094 260.103 55.2844 259.925C56.7548 259.829 58.2317 259.734 59.681 259.502C63.786 259.013 66.1763 256.278 68.4388 253.017C70.6087 250.001 72.5415 246.807 74.1927 243.485C79.8557 232.042 85.9025 215.698 80.262 203.197C77.5489 197.209 70.8631 194.004 64.4249 195.305C36.9898 202.913 10.0404 256.6 6.34423 283.369C6.32648 285.108 7.41668 286.218 9.08702 285.995C10.9671 285.769 12.7247 284.921 14.4833 284.254C16.8936 283.252 19.3391 282.279 20.8369 280.528C22.7464 278.427 23.1956 275.081 25.0893 273.058C26.9292 271.059 29.8002 271.013 32.3406 270.956C34.5161 270.918 36.7335 270.969 38.9182 270.935C42.3679 270.925 45.7046 270.544 46.872 267.091C47.6126 265.298 47.7415 262.97 49.11 261.548L49.1497 261.508L49.1492 261.511Z" fill="#7CD1C4"/>
<path d="M46.5402 155.928C48.1095 155.981 49.6497 155.927 51.2079 156.008C55.3381 156.311 59.6796 156.993 63.7907 155.909C65.5002 155.546 67.21 155.243 68.9567 154.999C95.6513 151.721 119.485 135.532 136.703 115.437C138.349 113.654 138.474 111.645 137.42 109.503C135.376 105.137 132.968 100.861 131.07 96.4351C128.714 90.7246 125.925 83.3546 123.023 76.7647C121.99 74.4964 121.202 72.7466 120.143 70.8666C118.596 67.804 116.738 66.7766 113.305 67.963C84.847 81.2226 49.7376 87.8438 22.2797 68.6526C19.2904 66.0095 16.0841 63.5177 13.4053 60.5555C11.4925 58.262 9.35373 56.1749 7.78567 53.6177C3.91622 46.8686 0.385548 39.6453 -1.89384 32.1812C-3.07403 28.7419 -3.79149 25.4204 -4.26343 21.7294C-5.18253 16.4831 -5.81164 11.6227 -5.51735 6.30902C-5.52722 2.30661 -6.1033 -1.39788 -5.89166 -5.4145C-5.73265 -11.1257 -3.16558 -16.835 -9.41041 -20.3648C-11.5658 -21.6265 -14.5832 -22.9605 -16.7326 -23.4962C-18.2758 -23.8976 -19.6222 -23.7054 -20.646 -22.1542C-23.6615 -17.1258 -25.4616 -11.2698 -27.2766 -5.67224C-28.8168 -1.14124 -29.8674 3.69143 -30.983 8.37063C-31.4053 11.0962 -31.3521 13.8186 -32.2381 16.4329C-33.6695 20.8451 -33.7713 25.7474 -34.1096 30.3023C-34.6119 34.8242 -34.595 39.2368 -34.549 43.7372C-34.612 47.5317 -34.6755 51.4126 -34.0306 55.1847C-32.1336 68.324 -31.2105 82.0648 -25.301 94.1543C-23.8037 96.903 -23.1161 99.5645 -21.7161 102.464C-20.5687 104.807 -19.0019 107.021 -17.7386 109.244C-16.2634 111.779 -15.2283 113.995 -13.7166 116.386C-10.555 121.136 -6.74738 125.67 -2.77938 129.951C-0.732452 132.01 1.0377 134.343 3.27449 136.213C5.84366 138.227 8.80406 139.894 11.3118 141.918C14.3475 144.046 17.3867 146.544 20.8509 148.053C26.6379 150.857 32.7329 152.966 38.9742 154.414C41.4416 155.037 43.898 155.915 46.4733 155.931L46.5391 155.935L46.5402 155.928Z" fill="#ADADF9"/>
<path d="M14.9236 3.34975C16.7255 0.138491 19.2555 -2.69692 22.856 -3.80146C27.8793 -5.34042 33.6653 -5.26275 38.5234 -3.20099C41.7848 -20.6253 57.0662 -20.0768 68.8445 -10.3537C73.0414 -6.88758 78.1895 5.15013 79.9864 10.5606C82.17 17.1359 84.5767 24.9857 78.6873 30.067C72.1971 35.6708 63.4268 32.2168 56.8635 28.5023C54.3467 51.3072 31.4138 39.5122 21.0792 29.0348C17.3774 25.2809 12.9446 19.6705 11.9734 14.3249C11.4745 11.5768 12.4345 8.78123 13.5248 6.21079C13.9351 5.24583 14.3962 4.28224 14.9209 3.3459L14.9236 3.34975Z" fill="#ADADF9"/>
</g>
<path d="M1693.65 1144.28C1453.5 1384.42 1064.56 1384.83 824.914 1145.19C585.27 905.541 585.675 516.596 825.819 276.452C1065.96 36.308 1454.91 35.9029 1694.55 275.547C1934.2 515.191 1933.79 904.137 1693.65 1144.28ZM965.734 416.366C803.024 579.077 802.749 842.608 965.121 1004.98C1127.49 1167.35 1391.02 1167.08 1553.73 1004.37C1716.44 841.656 1716.72 578.125 1554.35 415.753C1391.98 253.382 1128.44 253.656 965.734 416.366Z" fill="url(#paint0_linear_1_18)" fill-opacity="0.4"/>
<defs>
<linearGradient id="paint0_linear_1_18" x1="2709.89" y1="471.133" x2="823.832" y2="1142.14" gradientUnits="userSpaceOnUse">
<stop/>
<stop offset="0.966933" stop-opacity="0"/>
</linearGradient>
<clipPath id="clip0_1_18">
<rect width="814" height="451" fill="white" transform="translate(313.68 24.7051) rotate(99.1482)"/>
</clipPath>
</defs>
</svg>
