<svg width="630" height="821" viewBox="0 0 630 821" fill="none" xmlns="http://www.w3.org/2000/svg">
<g clip-path="url(#clip0_1170_75457)">
<rect width="630" height="821" fill="#5757AD"/>
<rect y="-0.000976562" width="630" height="773.911" fill="#5757AD"/>
<path d="M817.564 978.436C613.937 1182.06 284.136 1182.41 80.9323 979.203C-122.271 776 -121.927 446.199 81.6997 242.572C285.327 38.9444 615.128 38.6009 818.331 241.804C1021.53 445.008 1021.19 774.809 817.564 978.436ZM200.338 361.21C62.3702 499.178 62.1374 722.636 199.818 860.317C337.499 997.998 560.957 997.765 698.925 859.797C836.893 721.829 837.126 498.371 699.445 360.69C561.764 223.009 338.306 223.242 200.338 361.21Z" fill="url(#paint0_linear_1170_75457)" fill-opacity="0.4"/>
<path d="M274.077 -77.2396C276.645 -79.5657 277.91 -82.5747 281.075 -85.017C320.851 -115.696 361.162 -167.85 403.767 -191.969C407.565 -194.117 412.551 -197.195 416.654 -196.564C416.758 -196.41 418.843 -194.894 419.329 -194.539C423.402 -187.499 427.491 -180.338 431.755 -173.495C432.415 -172.436 433.629 -171.992 433.92 -171.528C435.008 -169.792 436.238 -168.407 436.917 -167.31C449.249 -147.453 428.537 -145.987 421.288 -136.325C405.73 -115.592 417.513 -83.8086 437.804 -80.2028C448.964 -78.2217 460.734 -87.0074 469.285 -95.9263C473.938 -100.782 475.435 -108.097 482.959 -100.406C493.595 -81.5884 505.128 -63.6718 514.25 -43.3912C513.973 -41.763 513.041 -38.8622 513.066 -37.6103C503.249 -20.8582 487.496 -12.8551 475.038 -0.907796C468.167 5.67917 456.662 15.7503 465.112 27.8688C472.537 38.5165 482.776 36.8976 489.824 44.7498C491.908 47.0748 494.5 55.4888 494.449 59.1073C494.258 72.1272 489.065 87.4591 481.464 95.6928C465.955 112.5 438.984 106.365 434.753 77.8148C433.59 69.9796 436.559 45.0262 424.559 51.4178C417.549 55.151 407.804 65.8573 400.136 70.9371C393.552 75.3006 370.096 88.8332 363.727 86.4893C360.859 85.4292 357.972 80.6896 355.918 77.7971C346.588 64.6443 336.518 36.9495 321.847 34.7822C313.245 33.5099 312.686 50.1371 310.356 57.6726C303.706 79.1674 282.805 85.4941 268.897 72.646C245.935 51.4309 245.423 10.7925 276.712 5.4173C280.562 4.75743 298.302 5.73976 298.749 -2.15948C298.918 -5.12579 281.732 -33.7701 279.051 -39.1528C273.193 -50.8922 265.003 -64.1169 274.086 -77.2264L274.077 -77.2396Z" fill="#FDDFDB"/>
<path d="M124.832 -5.21102C199.013 95.1995 92.7184 249.122 8.93364 169.376C6.09441 166.718 3.58855 164.54 1.32701 161.498C-1.80277 157.233 -4.33312 152.247 -6.85628 147.326C-30.9375 100.101 -29.5475 32.5069 4.06396 -5.94939C37.719 -46.0033 91.0021 -43.1072 124.781 -5.26475L124.829 -5.20837L124.832 -5.21102ZM1.4795 55.9126C1.09341 56.7648 1.33148 58.2493 1.84981 59.7651C15.9201 94.0444 44.8054 150.833 74.4332 159.71C82.2323 161.73 88.8733 157.082 93.8875 149.222C103.328 134.484 97.7847 114.168 86.0737 100.787C82.6504 96.8126 78.6928 93.5198 74.6391 91.1724C71.805 89.4794 68.8586 88.0044 66.2444 85.7204C63.2581 83.1892 60.8024 79.5059 58.2731 76.2714C49.7132 64.8649 46.7398 86.0506 37.0495 75.3542C34.9644 73.1428 33.2561 70.5845 31.4258 68.0501C28.4864 63.7802 26.2771 62.1844 22.205 64.7205C19.6822 66.3114 17.3099 66.7092 14.8992 64.6058C12.2482 62.7557 4.09522 52.151 1.50314 55.8668L1.48213 55.91L1.4795 55.9126ZM50.0387 56.8783C52.1832 56.8149 53.9387 59.3035 55.5559 61.0667C56.6808 62.3455 57.8096 63.6314 59.014 64.7585C62.3086 68.1138 65.9275 67.6986 69.8195 66.6553C73.4752 65.7622 77.0837 64.476 80.5787 62.8028C92.5985 57.0179 108.296 46.852 112.915 29.5005C115.118 21.1793 112.531 11.8437 106.993 7.09725C81.9644 -11.134 25.2976 15.6518 4.05469 38.0928C2.83417 39.7588 2.84828 41.8492 4.20554 43.1913C5.71571 44.7262 7.56931 45.5457 9.2988 46.54C11.7293 47.819 14.165 49.1589 16.4586 48.8626C19.291 48.6123 21.9375 45.7948 24.7049 45.6046C27.4166 45.388 29.5154 48.0208 31.3832 50.3356C32.976 52.3272 34.5366 54.4449 36.1327 56.4497C38.6226 59.6577 41.2886 62.4018 44.5263 60.1506C46.3041 59.1072 48.0124 56.9768 49.9849 56.8775L50.0413 56.8756L50.0387 56.8783Z" fill="#7CD1C4"/>
<path d="M-76.7432 722.928C-76.156 724.885 -75.4821 726.747 -74.9252 728.705C-73.5285 733.944 -72.3936 739.648 -69.7371 744.108C-68.7124 746.01 -67.7424 747.945 -66.8115 749.958C-53.0004 780.966 -28.5432 801.431 -3.1958 811.643C-0.898335 812.694 0.98842 811.753 2.51973 809.293C5.68378 804.405 8.61726 799.12 11.8949 794.379C16.1613 788.377 21.7693 780.939 26.6185 773.787C28.2737 771.283 29.5543 769.363 30.8439 767.038C33.0174 763.471 33.2042 760.63 30.7285 757.059C7.07639 729.319 -13.2012 689.795 -6.77973 645.619C-5.57434 640.508 -4.59519 635.213 -2.97222 630.31C-1.65034 626.712 -0.608685 622.949 1.094 619.631C5.69673 611.204 10.8703 602.935 16.7709 596.072C19.4372 592.75 22.1832 590.06 25.3666 587.472C29.7907 583.487 33.9795 580.068 38.9567 577.537C42.6119 575.347 45.7654 572.622 49.5234 570.696C54.8093 567.782 61.069 567.828 61.7662 558.236C62.0465 554.901 62.0436 550.468 61.6626 547.537C61.4044 545.422 60.6832 543.873 58.8502 543.46C53.0313 542.493 46.9481 543.469 41.0952 544.287C36.3287 544.861 31.4848 546.201 26.7548 547.378C24.0918 548.343 21.6245 549.89 18.8753 550.225C14.2616 550.868 9.73835 553.411 5.43693 555.475C1.09926 557.32 -2.92814 559.743 -7.02407 562.249C-10.5187 564.237 -14.0925 566.271 -17.2799 569.117C-28.5241 578.599 -40.7128 587.213 -49.3715 601.053C-51.2778 604.389 -53.4326 606.682 -55.5161 609.98C-57.1935 612.665 -58.5834 615.795 -60.1032 618.556C-61.8237 621.749 -63.4297 624.226 -65.0041 627.385C-68.0653 633.854 -70.6681 640.999 -72.9742 648.204C-74.0273 651.839 -75.4438 655.284 -76.2473 659.049C-77.0472 663.301 -77.3722 667.845 -78.2062 672.027C-78.9223 676.915 -79.9749 682.008 -79.9511 687.085C-80.1704 695.72 -79.6292 704.355 -78.4239 712.81C-77.9943 716.18 -77.8017 719.675 -76.7726 722.847L-76.7495 722.93L-76.7432 722.928Z" fill="#ADADF9"/>
<path d="M-6.0563 270.511C-2.39036 270.977 1.2269 272.541 3.69544 276.363C7.13756 281.696 9.41067 288.845 9.49387 295.935C26.7455 290.457 32.435 309.527 28.3175 329.288C26.8488 336.33 17.929 349.207 13.7104 354.359C8.58356 360.621 2.38186 367.85 -4.64973 363.381C-12.4025 358.459 -12.7978 345.806 -12.0608 335.721C-33.93 345.043 -32.4373 310.452 -27.0452 292.054C-25.1129 285.464 -21.7794 276.964 -17.2857 272.862C-14.9753 270.753 -12.0305 270.41 -9.23873 270.35C-8.19027 270.329 -7.12251 270.371 -6.0539 270.506L-6.0563 270.511Z" fill="#ADADF9"/>
<g clip-path="url(#clip1_1170_75457)">
<path d="M415.306 345.1C423.454 335.829 438.108 333.636 449.686 336.577C451.999 337.165 454.247 337.486 455.464 335.19C456.401 333.677 457.102 331.025 458.58 328.785C462.342 323.059 468.912 318.13 475.824 318.044C482.611 317.941 486.144 322.446 489.742 327.589C491.237 329.474 492.909 327.91 494.169 326.528C495.564 325.004 496.973 323.332 498.575 321.948C504.211 316.58 513.158 313.499 518.772 320.236C520.23 321.485 521.824 325.873 523.921 323.888C525.022 322.907 526.324 320.197 528.107 317.981C529.811 315.817 531.861 313.827 534.214 312.408C540.908 308.318 550.352 311.443 553.453 318.682C557.549 326.293 557.352 334.806 558.158 343.146C559.347 352.621 560.684 361.698 560.68 371.155C560.568 381.32 560.812 397.316 555.317 405.959C552.88 409.588 548.17 410.087 544.864 412.534C542.238 414.356 540.593 417.263 538.28 419.448C533.561 423.511 526.209 425.176 520.397 422.609C517.091 421.147 513.959 418.085 511.436 415.247C510.055 413.656 507.675 410.696 506.101 411.082C501.747 411.985 500.33 425.911 487.154 423.091C485.43 422.889 481.572 420.942 481.91 423.812C482.057 425.355 483.235 428.18 483.956 430.868C484.599 433.179 485.052 435.527 485.555 437.873C486.463 442.642 488.269 447.168 489.621 451.812C490.886 456.157 493.612 460.015 494.422 464.49C495.029 467.836 494.329 471.624 491.803 473.899C490.402 475.163 488.594 475.854 486.825 476.512C469.443 483.025 451.805 489.08 434.617 496.08C427.11 499.138 419.878 503.287 412.241 506.422C403.534 509.995 394.775 513.445 385.97 516.77C384.25 517.422 382.433 518.076 380.619 517.77C375.964 516.993 373.274 510.137 370.487 506.866C366.175 501.801 361.506 496.909 357.909 491.281C355.912 488.156 354.363 484.807 352.624 481.334C351.175 478.638 349.249 473.067 345.447 475.561C342.721 477.45 339.071 481.257 335.023 480.716C332.536 480.563 329.773 479.059 328.017 478.68C327.337 478.539 326.637 478.452 326.047 478.831C324.998 479.462 324.729 481.742 324.642 483.178C324.507 484.992 324.335 486.859 324.044 488.668C322.819 499.629 315.766 510.479 303.636 508.4C295.284 507.15 297.587 516.872 288.268 519.247C281.265 520.777 272.608 517.649 266.875 513.564C261.74 509.719 257.717 504.249 253.962 499.085C243.889 484.924 233.844 469.211 230.316 451.894C229.422 447.485 227.849 443.431 227.24 439.007C226.592 433.022 227.353 425.64 231.469 421.049C233.79 418.484 236.983 416.148 240.533 415.921C244.401 415.474 247.884 419.25 250.808 420.449C253.412 421.437 255.128 419.93 257.058 417.819C261.084 412.816 265.885 408.209 272.177 406.317C275.56 405.166 279.285 404.121 282.82 403.592C286.275 402.939 290.935 404.005 293.157 400.655C294.789 398.341 295.788 393.975 297.865 391.541C301.487 386.494 307.689 385.052 313.685 384.787C317.12 384.57 320.413 385.615 323.616 386.676C330.647 389.359 334.522 382.466 339.105 378.528C342.729 375.358 347.059 372.764 351.707 371.364C356.463 369.93 360.956 372.034 365.426 373.434C374.846 375.804 386.532 373.78 395.262 369.473C400.844 366.35 405.699 361.381 409.147 356.068C411.42 352.579 412.663 348.453 415.258 345.17L415.319 345.09L415.306 345.1ZM393.881 405.619C396.954 407.082 401.26 406.631 404.113 404.747C407.123 402.838 407.853 399.023 407.016 395.717C405.61 388.171 395.007 383.851 389.637 389.886C384.904 394.461 388.502 403.096 393.791 405.578L393.883 405.624L393.881 405.619ZM406.331 415.882C401.071 417.909 400.043 422.948 401.394 428.06C403.289 436.873 411.923 439.815 417.224 431.986C422.034 424.768 415.478 411.973 406.429 415.839L406.334 415.875L406.331 415.882ZM416.334 447.936C410.806 451.45 410.397 459.745 414.323 464.68C419.572 471.542 430.283 466.132 431.192 458.398C432.407 450.122 423.891 443.375 416.416 447.882L416.329 447.938L416.334 447.936Z" fill="#73E0CF"/>
<path d="M549.867 131.469C580.039 155.528 571.196 205.582 536.773 220.666C514.532 231.157 486.339 223.798 473.619 202.505C444.439 154.131 504.508 95.3737 549.782 131.4L549.873 131.474L549.867 131.469ZM487.077 157.769C483.864 156.191 485.33 160.008 486.697 161.564C490.62 166.025 498.364 169.39 503.953 166.504C505.918 165.622 508.416 163.235 508.443 161.995C508.602 159.427 501.584 163.275 500.011 163.084C495.096 163.779 490.993 160.36 487.155 157.812L487.077 157.775L487.077 157.769ZM553.617 158.231C553.227 157.942 552.469 158.064 551.523 158.489C550.369 158.998 549.015 159.89 547.82 160.515C542.768 163.407 536.437 162.479 531.119 160.549C529.982 160.231 527.121 159.095 526.849 160.658C527.435 163.538 531.715 165.187 534.323 166.008C538.647 167.284 543.002 167.625 547.046 165.656C549.6 164.444 552.4 162.55 553.643 159.993C554.01 159.179 553.993 158.542 553.646 158.256L553.612 158.231L553.617 158.231ZM539.021 194.517C536.628 193.096 532.961 194.015 530.209 193.912C525.073 193.984 519.885 193.385 514.837 194.1C511.597 194.534 508.656 195.172 505.129 195.407C502.634 195.612 500.006 195.666 497.544 196.03C496.006 196.271 493.24 197.042 493.444 198.582C493.592 199.252 494.502 199.854 495.838 200.099C499.829 200.604 504.149 199.361 508.176 199.076C516.461 198.345 525.333 198.887 533.564 197.999C535.146 197.932 540.781 196.555 539.061 194.557L539.021 194.522L539.021 194.517Z" fill="#ADADF9"/>
<path d="M331.432 140.468C367.422 155.101 372.801 205.814 343.94 229.909C325.32 246.396 295.987 246.745 277.796 229.753C236.786 191.145 278.081 119.073 331.326 140.427L331.434 140.473L331.432 140.468ZM298.908 172.438C297.094 172.977 296.916 179.657 296.239 181.638C294.357 190.191 287.424 189.748 281.546 184.599C280.588 183.94 276.969 180.032 276.367 181.357C276.142 182.115 277.357 184.367 278.132 185.345C284.447 193.476 296.105 194.961 299.181 184.069C300.013 181.705 301.167 173.617 298.936 172.439L298.902 172.44L298.908 172.438ZM319.011 175.195C316.748 174.252 314.76 171.871 313.057 171.129C311.557 170.626 311.936 172.334 313.006 174.042C317.854 181.07 327.277 181.196 331.894 173.781C332.635 172.644 333.233 171.399 333.672 170.112C334.708 167.209 335.258 161.589 333.287 162.671C331.285 164.575 330.418 167.763 328.967 170.135C327.005 173.953 323.426 176.969 319.105 175.234L319.004 175.192L319.011 175.195ZM344.217 194.397C342.199 194.863 341.052 201.591 340.219 203.721C339.559 205.81 338.761 207.819 337.584 209.776C328.874 224.113 309.243 225.814 294.855 218.635C293.817 218.223 289.596 215.64 289.143 216.705C289.975 219.231 294.564 221.716 297.302 222.922C314.158 231.088 336.329 224.64 342.943 206.239C343.898 203.96 346.264 195.832 344.248 194.403L344.217 194.397Z" fill="#73E0CF"/>
<path d="M557.403 331.312C581.105 304.932 606.208 277.551 620.331 244.575C622.287 240.817 624.511 236.844 626.791 233.251C628.966 229.804 632.363 224.157 636.732 227.98C639.975 230.897 637.56 236.179 636.292 240.178C635.457 244.324 644.628 231.578 648.914 232.099C650.968 232.145 652.895 234.178 653.86 236.049C654.584 237.441 654.161 238.956 653.254 240.167C651.675 242.318 649.575 244.248 647.765 246.16C647.219 246.825 645.844 247.914 646.499 248.829C647.003 249.325 648.08 249.29 648.842 249.314C651.67 249.277 654.55 248.872 657.217 249.14C659.758 249.403 662.295 250.21 664.512 251.473C669.758 254.284 663.412 260.488 659.715 261.18C655.281 262.238 650.248 261.242 646.047 263.337C643.663 264.567 646.476 265.945 647.749 266.606C651.386 268.373 654.756 270.588 656.994 274.114C657.806 275.347 658.411 276.862 657.915 278.319C657.107 280.486 654.917 282.62 652.477 282.61C648.768 282.336 645.211 278.685 641.534 281.772C637.63 285.388 633.969 289.485 630.567 293.56C610.292 321.722 594.542 359.127 563.139 376.762C561.725 377.625 560.446 377.331 560.122 375.495C559.634 365.513 559.334 356.922 557.661 347.006C556.983 342.933 556.623 338.901 556.691 334.778C556.708 333.614 556.84 332.389 557.367 331.399L557.415 331.313L557.403 331.312Z" fill="#F4C9F4"/>
<path d="M348.899 319.448C349.682 321.947 350.259 323.467 352.48 324.986C354.7 326.504 360.269 327.392 362.869 326.697C368.545 325.189 371.345 320.357 375.818 317.093C378.17 327.1 385.058 322.902 390.64 318.278C393.625 325.926 400.021 321.832 404.418 317.947C403.889 319.348 408.722 324.327 409.408 324.237C411.745 319.726 415.966 314.296 421.003 319.485C422.8 321.338 423.824 323.399 424.17 325.953C424.469 328.164 425.446 330.374 424.535 332.602C424.059 333.76 423.121 334.658 422.206 335.512C419.815 337.749 417.362 340.003 414.406 341.412C414.41 351.169 407.951 359.521 401.183 365.881C394.719 371.952 388.558 372.694 380.617 374.202C372.195 375.798 363.258 375.228 356.467 369.358C343.005 357.725 342.316 334.791 348.908 319.456L348.899 319.448Z" fill="#F4C9F4"/>
<path d="M540 588.072C541.476 587.899 544.224 592.473 545.565 593.852C552.096 600.556 559.446 606.595 565.755 613.467C566.973 614.794 569.286 615.718 568.39 617.296C564.993 623.298 558.396 626.485 554.119 631.655C553.453 632.457 552.06 634.631 550.846 634.603C549.771 634.582 549.051 633.063 548.344 632.374C546.291 630.371 543.673 629.057 541.468 627.242C538.637 624.912 534.319 621.408 531.833 618.915C529.093 616.169 526.086 612.142 523.391 609.117C523.107 608.8 522.539 608.624 522.549 608.038L539.579 588.229C539.723 588.203 539.858 588.09 540 588.072Z" fill="#F4C9F4"/>
<path d="M666.027 434.457C662.282 430.3 657.164 428.097 652.111 425.836C647.065 423.486 642.021 420.731 636.36 420.408C625.191 419.945 614.808 423.185 604.234 427.077C584.043 434.841 563.655 447.655 545.993 459.836C542.311 462.36 539.046 464.78 535.32 467.874C531.856 470.693 528.265 473.862 524.34 475.963C519.505 478.717 515.296 477.882 510.87 474.914C506.246 471.876 500.661 467.177 494.85 467.155C491.503 467.147 490.197 468.774 487.764 470.53C484.444 472.925 479.758 474.1 475.977 475.639C458.996 482.539 441.956 489.279 424.85 495.86C413.985 500.043 403.094 504.156 392.18 508.209C383.903 511.28 376.804 512.046 376.579 522.276C376.483 526.677 376.428 532.718 376.33 537.16C376.281 540.186 375.937 544.502 372.556 545.122C369.008 545.833 365.068 545.075 361.456 544.737C354.528 543.801 347.391 542.75 340.417 543.39C323.163 545.496 305.645 545.714 288.433 548.437C282.685 549.351 276.8 550.452 271.222 552.176C260.407 555.559 250.51 562.08 242.944 570.525C228.488 586.916 234.668 604.016 245.119 620.588C251.075 629.902 257.447 639.336 267.03 645.24C275.062 650.289 283.825 653.668 292.569 657.397C327.413 672.262 369.635 675.342 407.199 676.395C419.141 676.729 419.982 672.29 422.382 662.232C423.406 656.601 424.485 650.978 425.622 645.373C426.178 642.638 426.742 639.905 427.329 637.176C427.756 635.168 428.076 632.395 430.117 631.333C431.164 630.789 432.443 630.758 433.553 631.149C435.711 631.903 437.704 632.765 439.899 633.465C442.734 634.366 445.625 635.082 448.464 635.976C450.92 636.688 453.406 637.28 455.799 637.621C461.837 638.483 467.012 638.724 473.335 639.354C478.44 639.593 484.174 640.356 489.025 638.841C489.567 638.656 490.119 638.393 490.672 638.085C490.709 638.214 490.734 638.358 490.751 638.54C491.454 638.529 494.991 639.078 495.161 638.815C495.224 638.723 494.875 637.541 495.33 636.618C495.533 636.212 496.908 634.45 498.11 632.958C504.943 628.153 510.707 621.978 516.513 615.873C520.84 611.477 524.493 607.571 528.301 602.735C531.01 599.284 534.445 595.927 536.664 592.277C540.263 586.633 554.463 602.944 562.203 610.413C568.128 616.133 573.537 622.245 582.355 618.755C585.961 617.327 589.044 614.849 592.022 612.365C616.67 591.807 642.132 567.289 658.299 539.326C661.505 533.79 663.556 527.668 666.284 521.83C667.397 519.395 668.515 516.959 669.473 514.457C671.311 509.647 672.65 504.662 674.485 499.859C677.047 493.438 678.778 486.87 679.072 479.89C679.653 464.443 676.691 446.299 666.034 434.46L666.027 434.457Z" fill="#CF9982"/>
<path d="M461.139 637.573C460.837 637.651 455.908 637.073 455.147 636.928C449.528 635.876 444.127 633.648 438.66 632.129C435.941 631.372 432.946 631.084 430.195 630.408C429.862 631.154 428.616 632.326 428.561 632.455C425.15 640.658 422.942 657.835 420.804 666.974C422.542 668.667 424 667.787 425.703 668.1C430.536 668.988 435.414 669.767 440.238 670.676C444.069 671.401 448.127 673.057 451.948 673.328C452.886 673.395 453.595 673.4 452.963 672.254C451.91 671.922 451.246 672.974 451.3 670.973C451.35 669.254 453.771 662.669 454.409 660.691C456.785 653.295 459.435 647.263 460.926 639.575C461.045 638.96 461.54 638.388 461.141 637.578L461.139 637.573Z" fill="#F4C9F4"/>
<path d="M416.242 447.845C419.809 445.792 426.031 445.934 428.618 449.433C432.524 454.712 432.37 460.213 427.697 464.95C425.095 467.585 419.328 468.956 416.14 466.8C413.501 465.015 411.254 458.998 411.582 455.834C411.845 453.306 414.016 449.13 416.247 447.843L416.242 447.845ZM422.802 452.603C417.587 450.859 418.82 461.019 420.967 461.573C424.863 462.581 426.399 453.803 422.802 452.603Z" fill="#58B7A8"/>
<path d="M406.336 416.079C410.678 413.857 413.584 415.04 416.437 418.794C420.007 423.491 419.779 430.126 415.452 434.214C411.583 437.875 405.71 437.46 403.14 432.596C401.649 429.773 399.251 421.051 402.129 418.695C402.807 418.141 405.461 416.519 406.324 416.078L406.336 416.079ZM407.601 429.343C407.787 429.445 411.451 428.988 411.868 428.758C415.057 427.04 412.064 421.256 408.794 421.76C408.346 421.83 406.673 422.407 406.545 422.632C406.376 422.929 407.251 429.154 407.596 429.345L407.601 429.343Z" fill="#58B7A8"/>
<path d="M393.624 405.679C389.545 403.997 385.244 395.327 388.163 391.353C388.963 390.267 393.6 387.165 394.839 386.755C396.713 386.132 403.986 389.403 405.058 390.996C406.78 393.567 408.533 400.19 406.526 402.889C405.278 404.564 401.073 406.175 399.024 406.482C398.11 406.617 394.432 406.012 393.629 405.678L393.624 405.679ZM396.594 393.811C395.857 394.268 395.051 395.276 394.777 396.12C392.964 401.685 404.505 402.826 403.075 395.723C402.206 391.413 399.893 391.761 396.594 393.811Z" fill="#58B7A8"/>
<path d="M151.867 256.102C117.767 242.055 83.166 268.848 81.5842 304.058C79.4789 350.978 133.475 376.436 167.414 342.609C193.025 317.082 186.158 270.233 151.862 256.104L151.867 256.102ZM117.311 306.429C115.635 307.766 111.057 310.184 109 310.499C106.76 310.843 97.9105 307.199 96.7107 305.249C96.4326 304.794 95.6909 301.806 95.7714 301.639C95.8267 301.527 96.6913 301.137 97.1632 301.423C98.382 302.168 99.7564 303.881 101.381 304.657C105.208 306.491 111.706 306.838 115.143 304.04C116.846 302.653 118.386 297.868 118.933 295.644C119.262 294.306 118.736 292.573 119.577 291.398C120.482 290.137 121.171 290.24 121.821 291.693C123.4 295.213 120.252 304.089 117.316 306.427L117.311 306.429ZM164.986 311.848C163.426 312.56 158.582 311.676 156.438 312.138C149.405 313.65 146.081 316.629 142.353 322.417C139.277 327.197 137.875 331.662 138.783 337.379C136.339 338.049 136.068 336.586 135.932 334.503C135.206 323.007 142.679 313.119 153.507 309.555C155.809 308.795 162.427 308.208 164.593 309.198C165.403 309.564 166.129 311.331 164.986 311.848ZM153.716 282.748C150.599 291.31 142.698 293.385 134.466 291.463C132.685 291.048 128.225 290.027 129.68 287.545C132.001 283.587 133.314 287.435 135.869 288.396C143.635 291.307 149.847 286.671 150.936 278.853C151.068 277.908 150.454 270.941 153.101 274.4C154.625 276.395 154.553 280.445 153.716 282.748Z" fill="#FCBFB7"/>
<path d="M231.042 453.752C229.907 449.86 231.107 442.617 225.85 441.938C223.796 441.802 221.606 441.653 219.558 441.286C190.045 435.694 160.836 428.054 135.482 411.52C133.998 410.6 132.66 409.872 131.088 409.253C129.017 408.535 125.384 407.006 124.39 408.951C123.526 412.069 126.477 417.772 128.318 421.167C128.838 422.103 129.697 423.215 128.03 421.942C125.646 420.107 122.728 418.187 120.652 416.181C119.411 415.011 117.696 413.27 116.481 412.353C115.946 411.958 115.363 411.662 114.693 411.689C112.719 411.888 109.903 413.981 109.354 415.892C109.126 419.263 114.123 424.147 117.193 428.146C118.317 429.633 120.197 431.524 118.068 431.124C113.066 429.859 106.362 425.833 101.623 425.242C100.055 425.015 96.3999 425.315 96.9519 427.518C99.8991 433.93 109.2 436.823 111.464 443.301C107.662 443.313 103.749 442.705 99.9362 442.35C97.3355 442.109 96.7917 443.744 95.3016 445.565C93.2367 447.789 94.977 449.858 96.961 451.293C104.354 456.021 113.636 457.164 122.617 458.618C130.873 459.824 138.917 460.463 146.801 462.064C179.491 468.572 206.565 485.71 237.154 497.744C241.223 499.264 246.067 500.992 250.404 501.711C252.265 502.068 255.445 502.162 254.339 499.316C245.156 485.445 234.83 470.328 231.071 453.844L231.05 453.743L231.042 453.752Z" fill="#F4C9F4"/>
<path d="M387.502 334.306C388.097 338.479 395.04 338.581 397.857 337.121C398.637 336.716 403.512 331.894 403.772 334.233C401.659 339.1 394.874 342.181 389.901 340.135C386.543 338.749 385.934 333.406 387.504 334.311L387.502 334.306Z" fill="#0F0D0C"/>
<path d="M386.523 358.569C386.691 358.729 386.758 359.018 386.736 359.249C386.661 360.075 386.021 360.839 385.624 361.535C385.029 362.572 384.334 363.556 383.543 364.45C382.056 366.127 380.127 367.599 377.871 367.977C376.83 368.153 373.848 368.145 373.404 367.044C372.552 364.925 376.487 365.576 377.305 365.397C378.59 365.124 379.819 364.626 380.87 363.83C382.462 362.621 383.465 360.855 384.91 359.495C385.189 359.232 385.712 358.552 386.07 358.458C386.268 358.407 386.414 358.461 386.526 358.562L386.523 358.569Z" fill="#0F0D0C"/>
<path d="M455.289 283.481C451.17 274.686 436.836 276.88 429.685 280.25L433.539 276.607C436.316 273.324 435.126 270.834 431.186 269.722C425.548 268.13 404.867 273.674 399.211 276.277C396.362 277.589 393.551 279.817 390.779 281.323C390.307 281.174 393.87 274.774 389.128 272.34C386.701 271.092 384.016 273.017 381.795 274.254C377.906 276.422 373.314 280.38 370.234 283.633C369.55 284.356 368.853 285.916 368.418 286.295C367.643 286.972 367.676 286.035 367.546 285.547C366.932 283.254 366.719 279.373 363.1 280.749C361.056 281.527 360.728 283.144 359.76 284.252C350.763 294.525 344.46 305.289 348.905 319.446C349.689 321.951 350.264 323.465 352.485 324.984C354.729 326.522 360.274 327.39 362.874 326.696C368.55 325.187 371.35 320.355 375.824 317.091C378.175 327.098 385.063 322.901 390.645 318.277C393.63 325.924 400.026 321.831 404.423 317.945C403.894 319.346 408.728 324.325 409.413 324.235C411.75 319.724 415.971 314.295 421.008 319.484C424.436 323.018 424.009 325.351 424.588 329.603C424.625 329.869 424.838 330.166 424.902 330.445C424.937 330.432 424.987 330.767 425.687 330.592C432.192 328.951 437.975 329.48 442.306 323.211C445.694 318.302 445.559 311.06 440.301 307.454C444.188 305.419 445.025 304.417 448.044 301.215C451.886 297.142 458.092 289.444 455.299 283.477L455.289 283.481Z" fill="#0F0D0C"/>
<path d="M381.538 348.511C381.046 348.889 378.687 352.654 378.473 352.523C377.34 351.273 379.372 343.492 378.859 343.278C377.533 342.721 377.196 346.122 377.055 346.814C376.775 348.179 375.882 354.835 377.154 355.417C378.433 356.002 381.263 352.186 381.785 351.073C382.059 350.491 382.896 347.469 381.54 348.516L381.538 348.511Z" fill="#0F0D0C"/>
<path d="M374.182 337.811C373.114 338.209 371.468 339.29 371.089 340.418L369.141 341.623C367.943 341.961 367.05 342.55 365.686 342.687C360.838 343.169 356.109 339.572 355.121 334.866C354.063 335.015 354.491 335.244 354.378 335.753C353.351 340.365 360.296 345.636 364.791 345.417C367.016 345.308 368.088 344.8 369.932 343.731C370.571 343.362 370.682 343.109 371.038 342.84C372.802 341.509 374.468 340.067 375.485 338.062C375.321 337.085 374.825 337.578 374.188 337.815L374.182 337.811Z" fill="#0F0D0C"/>
<path d="M422.802 452.603C426.399 453.803 424.863 462.581 420.967 461.572C418.819 461.014 417.587 450.859 422.802 452.603Z" fill="#5757AD"/>
<path d="M407.601 429.344C407.251 429.154 406.383 422.932 406.55 422.63C406.678 422.406 408.35 421.823 408.799 421.758C412.069 421.254 415.059 427.045 411.873 428.757C411.455 428.981 407.792 429.443 407.606 429.342L407.601 429.344Z" fill="#5757AD"/>
<path d="M396.594 393.812C399.888 391.763 402.206 391.413 403.075 395.723C404.505 402.826 392.964 401.686 394.777 396.12C395.051 395.276 395.862 394.267 396.594 393.812Z" fill="#5757AD"/>
<path d="M543.915 627.501C540.952 625.061 536.437 621.395 533.832 618.782C530.965 615.912 527.814 611.693 524.998 608.53C523.542 608.65 522.947 608.952 521.841 609.814C518.421 612.475 514.372 618.028 511.045 621.339C506.138 626.596 500.013 630.298 495.318 635.818C492.952 638.599 489.33 638.265 485.795 638.594C478.576 639.268 471.088 639.357 464.101 637.16C463.61 637.006 463.11 636.844 462.593 636.82C460.352 636.73 459.907 638.785 459.602 640.479C459.139 643.066 458.431 645.623 457.663 648.129C456.188 652.964 454.344 657.679 452.798 662.495C452.131 664.564 449.595 671.454 449.546 673.253C449.487 675.346 450.18 674.249 451.283 674.592C455.257 675.839 457.89 675.921 461.621 676.762C467.041 677.985 473.764 680.469 479.153 681.178C487.038 682.219 496.954 676.712 504.59 674.308C512.036 671.962 524.704 670.948 530.324 665.968C532.319 664.198 533.932 660.362 533.184 657.741C532.821 656.461 530.842 654.026 531.078 652.973C531.176 652.532 537.367 648.64 538.482 647.773C540.658 646.09 542.574 644.035 544.606 642.349C547.107 640.27 549.442 638.374 551.827 636.15C552.158 635.844 552.594 635.59 552.986 635.216C551.158 631.948 546.878 629.941 543.908 627.498L543.915 627.501Z" fill="#0F0D0C"/>
<path d="M575.833 518.633C570.8 528.793 564.259 538.105 557.048 546.828C549.76 555.637 541.805 563.866 533.806 572.021C532.784 573.063 531.535 574.059 530.927 575.416C530.393 576.602 530.248 577.974 530.384 579.259C530.713 582.395 532.835 585.228 535.28 587.09C536.643 588.129 538.346 586.068 536.975 585.021C535.101 583.591 533.299 581.448 533.047 579.026C532.951 578.092 533.019 577.05 533.51 576.223C533.75 575.825 534.159 575.467 534.494 575.126C535.012 574.602 535.528 574.073 536.04 573.546C539.906 569.601 543.757 565.645 547.532 561.608C555.126 553.484 562.419 545.039 568.721 535.867C572.263 530.714 575.491 525.346 578.266 519.742C579.031 518.195 576.598 517.087 575.831 518.628L575.833 518.633Z" fill="#0F0D0C"/>
<path d="M421.716 617.416C411.164 614.595 400.557 611.977 389.905 609.576C386.859 608.89 383.813 608.22 380.762 607.565C379.076 607.206 378.624 609.839 380.305 610.2C390.984 612.489 401.617 614.978 412.201 617.684C415.223 618.459 418.243 619.246 421.26 620.051C421.957 620.237 422.69 619.633 422.806 618.962C422.938 618.199 422.418 617.6 421.716 617.416Z" fill="#0F0D0C"/>
</g>
</g>
<defs>
<linearGradient id="paint0_linear_1170_75457" x1="1679.27" y1="407.649" x2="80.0145" y2="976.623" gradientUnits="userSpaceOnUse">
<stop/>
<stop offset="0.966933" stop-opacity="0"/>
</linearGradient>
<clipPath id="clip0_1170_75457">
<rect width="630" height="821" fill="white"/>
</clipPath>
<clipPath id="clip1_1170_75457">
<rect width="621.223" height="621.223" fill="white" transform="translate(0 226.999) rotate(-20.4255)"/>
</clipPath>
</defs>
</svg>
