<svg width="730" height="354" viewBox="0 0 730 354" fill="none" xmlns="http://www.w3.org/2000/svg">
<path d="M35.9072 236.622C46.4518 213.201 60.1762 194.376 77.7716 175.822C85.3879 167.793 91.9924 162.203 102.185 157.488C105.22 156.086 109.305 154.099 112.535 154.042C152.583 147.818 154.952 157.167 154.89 154.388C154.758 148.83 157.592 144.215 161.752 140.996C162.663 140.291 163.781 140.09 163.687 138.55C164.165 139.028 170.776 139.713 172.428 140.241C175.69 141.279 179.001 144.139 182.489 144.994C193.769 147.761 200.826 143.033 210.799 143.265C221.991 143.529 217.139 162.643 209.454 165.819C211.27 168.252 214.324 168.673 216.643 170.075C238.889 183.493 264.534 211.39 275.525 235.069C277.718 239.791 279.025 245.022 281.482 249.662C281.482 249.662 289.107 246.521 304.356 240.237C313.254 236.918 322.303 233.309 331.421 230.624C337.693 228.775 356.4 223.374 361.836 224.141C364.551 224.525 366.794 226.122 367.617 228.794C369.911 236.264 371.677 252.234 372.33 260.445C372.475 262.256 373.474 274.825 372.33 275.938C367.573 278.138 368.135 276.262 364 279.5C369.481 281.89 355.596 276.535 354.151 275.938C353.573 275.699 352.837 274.592 351.593 274.127C340.854 270.134 330.095 265.821 319.193 262.489C317.86 263.413 318.558 290.575 318.482 294.788C318.457 296.215 317.816 297.56 317.81 298.158C309.955 300.226 302.395 305.351 294.911 307.91C281.62 312.449 254.341 309.343 240.409 306.243L220.891 300.849C220.954 298.026 225.076 297.699 225.491 294.982C225.717 293.492 224.819 291.637 223.222 291.392C221.255 291.097 212.401 295.001 209.039 295.397C205.407 295.825 201.41 295.02 197.828 295.63C195.849 295.963 182.049 301.377 181.949 302.521C184.927 307.771 188.195 313.072 189.596 319.032C190.828 324.27 190.225 329.224 190.602 334.524C190.721 336.241 190.746 337.813 191.324 339.473C190.269 340.24 189.201 341.07 188.113 341.799C158.704 361.536 114.345 369.728 81.0204 381.448C69.1499 381.932 56.808 385.227 45.1888 384.057C37.2269 378.336 22.7547 375.06 18.2867 365.855C7.34616 343.327 14.5037 312.38 19.0534 288.469C23.0123 267.682 35.9009 236.641 35.9009 236.641L35.9072 236.622ZM138.111 255.044C136.634 254.787 136.257 256 135.755 257.056C134.221 260.269 133.731 265.802 132.248 269.707C129.464 277.044 122.476 288.45 117.801 294.982C117.129 295.919 113.396 301.144 113.057 301.339C112.541 301.635 99.8852 303.194 102.455 305.539C122.445 300.748 143.107 297.894 163.693 300.151C163.844 298.39 163.781 299.038 162.682 298.83C147.116 295.919 131.318 297.988 115.916 300.824L126.548 284.872C132.028 275.428 136.747 266.085 138.117 255.038L138.111 255.044Z" fill="#73E0CF"/>
<path d="M191.915 81.0947C192.543 78.9884 193.448 76.3853 194.573 76.8318C195.623 77.2467 196.446 79.636 196.992 80.5602C197.69 81.736 198.4 82.9306 199.431 83.8297C200.461 84.7288 201.881 85.2821 203.207 84.9489C203.987 84.754 204.653 84.2761 205.306 83.8046C206.117 83.2198 207.185 81.5222 208.253 81.4468C209.498 81.365 210.139 82.9495 210.786 83.7983C212.696 86.2755 214.695 88.7591 217.755 89.8343C218.83 90.2115 219.973 90.3813 221.111 90.331C223.021 90.2492 225.158 89.1678 226.647 88.0612C225.905 88.6145 227.866 95.9897 227.992 96.9831C228.444 100.668 228.513 104.402 228.218 108.106C227.458 117.455 224.334 126.666 218.936 134.362C216.624 137.663 213.897 140.669 210.805 143.259C200.826 143.02 193.775 147.748 182.495 144.988C179.007 144.133 175.696 141.272 172.434 140.235C169.877 139.424 167.036 139.669 164.498 138.826C161.613 137.871 157.591 122.19 157.214 118.7C156.881 115.613 157.924 112.13 157.001 109.156C156.259 106.766 154.368 104.893 153.274 102.667C151.087 98.2344 149.064 94.3235 148.857 89.2495C148.813 88.1932 148.857 87.0929 149.315 86.1435C149.604 85.5525 150.038 85.0432 150.478 84.5528C151.584 83.3079 152.746 82.0755 154.179 81.2393C156.234 80.0447 160.419 79.9566 162.65 80.7174C164.692 81.4153 166.32 82.5659 167.809 83.9932C169.506 85.6216 170.995 86.8163 173.088 87.8851C177.015 89.8909 182.338 91.8337 186.347 89.4507C188.616 88.1052 190.149 85.7977 191.205 83.377C191.374 82.9872 191.613 82.0944 191.915 81.0884V81.0947ZM224.931 99.4919C223.593 98.2972 219.954 102.994 218.823 103.811C214.211 107.112 209.787 106.993 205.746 102.862C204.194 102.485 204.596 104.333 204.873 105.088C205.866 107.779 212.219 109.143 214.871 108.64C217.535 108.131 226.484 100.875 224.938 99.4981L224.931 99.4919ZM194.648 101.516C189.188 103.283 185.053 106.741 178.995 104.044C178.008 103.604 173.691 99.4981 173.119 100.171C170.367 103.359 180.679 107.993 183.664 108.005C187.051 108.024 193.775 105.188 194.648 101.516ZM198.01 103.528H196C195.277 115.839 200.574 136.293 204.741 110.269C201.542 110.256 201.548 119.486 200.7 120.366C199.11 119.668 198.959 116.437 198.702 114.632C198.212 111.199 198.149 107.024 198.017 103.528H198.01ZM210.799 130.47C210.428 130.074 203.704 134.312 201.636 134.526C200.417 134.651 200.801 132.375 198.689 133.168C197.897 137.305 201.699 137.041 204.766 136.211C205.897 135.909 212.269 132.023 210.799 130.47Z" fill="#CE9982"/>
<path d="M515.688 132.489C516.116 132.533 516.769 132.382 517.033 132.489C517.153 132.539 517.504 133.501 518.114 133.734C530.745 138.638 543.879 143.02 556.742 147.302C562.19 149.119 567.965 150.93 573.571 152.69C579 154.394 583.946 156.513 589.721 157.406C588.395 166.441 585.221 175.067 579.622 182.323C574.972 182.952 567.89 187.058 562.97 188.221C555.378 190.007 537.155 192.157 529.488 191.748C526.918 191.61 517.574 189.466 516.354 189.736C505.395 176.947 502.24 161.958 506.972 145.673C507.714 143.133 511.384 133.168 513.659 132.501C514.029 132.394 515.173 132.451 515.676 132.501L515.688 132.489Z" fill="#CE9982"/>
<path d="M190.608 334.506C190.231 329.205 190.841 324.244 189.603 319.013C188.201 313.059 184.927 307.752 181.955 302.502C182.056 301.352 195.855 295.944 197.835 295.611C201.417 295.001 205.413 295.806 209.046 295.378C212.414 294.982 221.268 291.078 223.229 291.373C224.825 291.612 225.724 293.473 225.497 294.964C225.083 297.68 220.96 298.007 220.897 300.83L240.416 306.224C245.053 310.374 243.734 314.178 238.612 316.882C229.475 321.704 215.204 325.621 205.238 329.281C200.43 331.047 195.906 334.254 190.608 334.512V334.506Z" fill="#CE9982"/>
<path d="M428.196 235.515C427.498 235.924 425.952 237.879 424.387 238.772C422.477 239.86 419.699 239.829 418.116 241.91C423.017 246.456 422.238 251.127 415.106 251.699C409.664 252.139 407.226 250.637 401.281 252.347C392.986 254.736 387.016 258.993 377.314 260.357C375.667 260.59 373.989 260.376 372.337 260.433C371.683 252.221 369.917 236.251 367.624 228.781C380.518 227.071 393.903 224.984 406.987 226.097C410.204 226.373 424.683 230.668 426.838 232.504C427.718 233.258 428.045 234.415 428.202 235.515H428.196Z" fill="#CE9982"/>
<path d="M191.06 205.487C187.227 207.775 181.408 199.155 179.63 196.213C176.243 190.554 180.038 186.392 185.933 184.707C189.439 183.807 194.14 183.053 195.956 186.146C197.803 190.359 195.905 195.244 194.567 199.375C193.681 201.783 192.719 204.437 191.142 205.436L191.06 205.487Z" fill="black" fill-opacity="0.2"/>
<path d="M196 236.635C192.167 238.924 186.347 230.304 184.569 227.361C181.182 221.702 184.978 217.54 190.872 215.855C194.378 214.956 199.079 214.201 200.895 217.295C202.743 221.507 200.845 226.393 199.506 230.524C198.62 232.932 197.659 235.585 196.081 236.585L196 236.635Z" fill="black" fill-opacity="0.2"/>
<path d="M138.111 255.045C136.741 266.092 132.022 275.435 126.542 284.879L115.909 300.83C131.312 297.995 147.11 295.926 162.675 298.837C163.775 299.045 163.838 298.397 163.687 300.158C143.101 297.9 122.439 300.755 102.449 305.546C99.8789 303.194 112.535 301.635 113.05 301.346C113.396 301.151 117.129 295.926 117.795 294.989C122.476 288.457 129.464 277.051 132.242 269.714C133.725 265.809 134.215 260.27 135.748 257.063C136.251 256.007 136.628 254.8 138.105 255.051L138.111 255.045Z" fill="#100C0C"/>
<path d="M591.28 347.275C590.639 347.583 589.822 346.621 589.727 346.628C589.501 346.64 589.281 346.615 589.055 346.628C584.593 346.842 580.081 347.018 575.595 347.301C574.928 347.345 574.244 347.257 573.577 347.301C567.099 347.76 560.507 348.527 554.059 349.319C544.979 350.432 534.264 351.167 525.982 355.235C525.058 355.688 523.77 356.549 523.764 357.731C527.025 358.134 530.343 355.663 533.598 354.776C539.405 353.198 547.982 352.066 554.059 351.337C568.72 349.577 583.833 350.645 598.054 349.231C600.787 348.96 606.782 348.294 609.139 347.527C610.257 347.162 611.514 346.772 611.263 345.282L591.286 347.275H591.28Z" fill="#0F0D0C"/>
<path d="M629.43 322.056C629.317 321.792 626.282 318.202 625.767 317.642C616.479 307.608 606.575 300.151 598.877 287.984C596.527 284.268 595.591 279.785 592.756 276.598C591.984 277.006 592.524 278.622 592.744 279.308C595.697 288.399 607.863 304.2 614.638 310.94C614.964 311.267 615.687 312.002 615.982 312.285C617.17 313.423 624.196 320.088 624.73 320.365C625.006 320.509 626.1 320.057 626.609 320.497C626.973 320.811 626.665 321.622 626.753 321.71C627.294 322.232 630.329 324.15 629.443 322.056H629.43Z" fill="#0F0D0C"/>
<path d="M228.18 66.149C226.371 62.6028 223.555 59.5408 220.728 56.7806C218.585 54.712 216.505 52.2536 214.098 50.5371C206.714 45.3688 197.194 45.023 189.728 50.053C188.522 50.8075 187.032 51.6563 185.75 51.6312C184.513 51.6626 183.331 51.0024 182.062 50.185C174.32 45.2557 162.657 43.5015 154.481 47.5192C152.539 48.4749 150.755 49.7638 149.359 51.4174C147.204 54.1462 145.363 56.5228 143.892 59.5723C142.956 61.6471 142.114 63.7975 141.787 66.1364C141.504 67.8026 141.448 69.7957 140.373 71.0846C138.664 73.0463 135.315 74.241 133.291 76.1712C121.892 86.7091 103.536 107.76 110.687 124.107C112.591 127.867 117.801 125.93 121.955 125.207C124.864 124.742 123.651 126.503 122.615 127.974C117.606 135.513 112.34 145.579 112.623 154.557C113.151 162.618 119.177 167.748 126.636 162.348C128.32 161.398 129.445 160.945 130.294 162.486C132.424 168.66 139.908 170.961 146.161 169.465C147.248 169.157 148.26 168.622 149.209 167.981C151.22 166.491 153.538 164.743 154.94 162.674C156.58 159.99 154.984 156.796 155.116 153.866C155.229 151.275 155.776 148.892 157.057 146.616C158.421 144.196 160.231 142.46 162.537 140.913C163.021 140.587 163.549 140.241 163.763 139.7C163.989 139.14 163.819 138.505 163.631 137.927C162.99 136.003 161.99 134.406 160.991 132.677C159.992 130.948 159.628 128.584 159.062 126.603C158.201 123.296 157.384 119.699 157.277 116.292C157.114 113.619 158.088 110.765 157.252 108.175C156.467 106.075 154.563 104.735 153.381 102.855C152.784 101.969 152.326 101.045 151.879 100.057C150.183 96.4106 149.077 92.5501 149.171 88.677C149.322 86.4638 150.679 84.5462 152.326 82.968C155.128 80.1135 159.577 80.2455 163.21 81.3144C165.654 82.1192 167.03 84.433 168.834 86.1495C172.259 89.7208 176.808 90.3306 181.471 90.7142C184.952 90.9594 188.503 89.7459 190.3 86.6399C191.563 84.6405 192.518 82.6851 192.977 80.3713C193.254 79.2332 193.499 77.982 194.083 77.6802C195.327 77.0263 196.88 81.2578 197.854 82.094C200.185 85.0051 202.837 86.4261 205.369 84.4644C206.526 83.6596 207.782 81.9368 209.284 82.5593C210.045 82.8925 210.692 83.9866 211.415 85.1498C213.256 88.2118 216.36 91.0348 220.112 90.972C223.317 90.9594 227.024 88.5953 228.903 85.6339C232.479 79.8117 230.958 72.1158 228.256 66.2684L228.199 66.1616L228.18 66.149Z" fill="#0F0D0C"/>
<path d="M198.011 103.528C198.143 107.024 198.205 111.199 198.696 114.632C198.953 116.443 199.104 119.668 200.694 120.366C201.542 119.486 201.536 110.256 204.735 110.269C200.568 136.292 195.265 115.839 195.994 103.528H198.004H198.011Z" fill="#0F0D0C"/>
<path d="M194.649 101.516C193.769 105.188 187.045 108.024 183.664 108.005C180.679 107.992 170.367 103.358 173.12 100.171C173.698 99.5042 178.015 103.61 178.995 104.044C185.053 106.741 189.188 103.277 194.649 101.516Z" fill="#0F0D0C"/>
<path d="M224.931 99.4925C226.477 100.876 217.529 108.125 214.864 108.634C212.213 109.144 205.859 107.773 204.866 105.082C204.59 104.328 204.188 102.485 205.74 102.856C209.781 106.987 214.205 107.107 218.817 103.806C219.948 102.995 223.587 98.2916 224.925 99.4862L224.931 99.4925Z" fill="#0F0D0C"/>
<path d="M210.798 130.471C212.269 132.017 205.897 135.903 204.766 136.211C201.699 137.035 197.897 137.299 198.689 133.168C200.807 132.376 200.417 134.652 201.636 134.526C203.704 134.319 210.421 130.081 210.798 130.471Z" fill="#0F0D0C"/>
<path d="M596.257 144.813C595.609 144.134 594.12 144.24 593.435 143.228C592.97 142.543 593.234 141.474 593.089 141.241C593.473 137.299 592.624 133.294 590.657 129.874C585.636 121.134 562.109 107.635 552.274 107.138C548.271 106.937 532.813 110.106 529.105 111.91C527.232 112.822 523.487 115.488 523.091 117.676C522.237 117.563 521.269 117.764 520.402 117.676C520.119 117.644 519.39 116.928 518.089 116.928C514.84 116.915 511.956 119.468 510.976 122.391C510.818 122.863 511.082 123.8 510.976 124.41C510.561 126.805 509.279 128.698 511.227 130.483C513.634 132.69 517.165 133.357 520.106 134.507C524.166 136.098 528.282 137.563 532.392 139.022C540.473 141.889 548.611 144.599 556.742 147.309C562.191 149.126 567.966 150.937 573.571 152.697C579 154.401 583.946 156.52 589.721 157.413C591.707 157.721 596.162 158.978 597.488 157.425C597.821 157.036 597.652 156.331 597.802 156.067C600.618 150.981 600.146 148.906 596.257 144.825V144.813Z" fill="#0F0D0C"/>
<path d="M565.181 159.871C565.295 159.959 565.313 160.166 565.225 160.581C565.012 161.537 563.422 162.889 562.536 163.235C559.155 164.561 554.913 162.832 552.06 161.009C550.458 159.984 548.95 158.708 547.875 157.13C547.649 156.796 545.757 152.873 546.65 152.691C550.577 151.898 549.603 155.017 551.338 157.085C553.732 159.934 558.024 160.965 561.6 160.594C562.555 160.493 563.403 160.198 564.321 159.959C564.735 159.852 565.037 159.764 565.181 159.877V159.871Z" fill="#0F0D0C"/>
<path d="M523.959 178.721C524.254 178.859 524.574 179.054 524.914 179.23C526.742 180.18 529.401 181.072 531.481 181.003C533.353 180.94 535.075 180.136 536.734 179.337C537.325 179.048 541.039 176.979 541.328 178.01C541.372 178.174 541.296 178.35 541.215 178.501C540.008 180.683 538.003 182.034 535.672 182.82C533.504 183.556 531.16 183.864 528.873 183.776C527.094 183.707 525.027 183.455 523.556 182.361C522.783 181.783 522.193 180.683 522.45 179.639C522.758 178.413 523.292 178.413 523.959 178.721Z" fill="#0F0D0C"/>
<path d="M514.35 141.921C515.186 141.084 523.808 148.585 527.496 148.686C528.508 148.711 533.202 147.127 533.177 148.988C533.158 150.591 525.536 150.692 523.883 150.214C522.01 149.673 511.736 144.549 514.35 141.921Z" fill="#0F0D0C"/>
<path d="M533.856 155.388C533.133 160.123 528.653 163.216 527.804 168.171C529.225 168.938 534.987 166.523 535.201 166.831C536.684 168.963 529.375 172.17 527.088 170.573C524.216 168.567 530.048 159.004 531.694 156.916C532.329 156.105 532.467 155.086 533.862 155.388H533.856Z" fill="#0F0D0C"/>
<mask id="path-21-inside-1_40_12720" fill="white">
<path d="M530.167 421.361C527.98 421.091 519.182 419.406 517.328 418.142C516.468 417.557 515.739 416.74 515.305 415.791C515.098 415.325 514.903 414.766 514.909 414.25C514.909 414.005 515.123 413.464 514.991 413.282C514.884 413.131 514.362 413.068 514.205 413.018C513.005 412.666 511.786 412.383 510.573 412.081C508.041 411.446 505.301 410.974 502.9 409.924C501.449 409.289 496.553 406.73 495.498 405.888C494.423 405.026 494.216 401.059 494.128 399.519C493.336 385.535 493.43 371.401 492.808 357.405C492.343 346.911 491.727 336.373 491.382 325.829C448.952 311.142 352.85 274.574 351.599 274.115C340.86 270.122 330.101 265.809 319.198 262.477C317.866 263.401 317.829 297.548 317.816 298.145C317.37 324.905 317.351 351.797 317.169 378.644C317.144 382.329 315.503 386.195 317.766 390.113L495.498 477.27C496.07 478.156 496.233 478.98 497.477 478.571C501.606 472.152 509.744 467.015 513.665 460.438L523.776 450.692C525.385 448.838 527.044 446.467 528.47 444.952C531.153 442.097 533.975 439.639 536.545 436.873C540.052 433.094 543.52 429.258 546.989 425.436C547.75 424.599 548.673 424.065 548.661 422.732C543.074 422.537 535.885 422.091 530.161 421.38L530.167 421.361ZM495.498 468.844C495.498 470.14 494.549 472.177 494.825 474.566L319.142 389.402C318.042 388.346 318.407 376.412 318.463 373.866C319.06 348.012 319.62 322.05 319.839 296.115C319.839 295.668 319.839 295.216 319.839 294.769C319.909 284.91 319.305 274.907 320.518 265.142L351.473 277.265C351.473 277.265 443.755 311.563 489.452 328.105C490.797 329.225 489.955 339.008 490.093 341.605C490.345 346.201 491.269 351.476 491.47 356.053C492.205 373.099 492.808 391.345 493.487 408.579C493.619 411.93 493.355 415.332 493.487 418.677C493.587 421.217 494.084 424.109 494.159 426.083C494.297 429.617 494.033 432.71 494.159 436.187C494.235 438.331 494.781 440.827 494.832 442.248C495.014 447.366 495.504 453.176 495.504 458.074V468.851L495.498 468.844Z"/>
</mask>
<path d="M530.167 421.361C527.98 421.091 519.182 419.406 517.328 418.142C516.468 417.557 515.739 416.74 515.305 415.791C515.098 415.325 514.903 414.766 514.909 414.25C514.909 414.005 515.123 413.464 514.991 413.282C514.884 413.131 514.362 413.068 514.205 413.018C513.005 412.666 511.786 412.383 510.573 412.081C508.041 411.446 505.301 410.974 502.9 409.924C501.449 409.289 496.553 406.73 495.498 405.888C494.423 405.026 494.216 401.059 494.128 399.519C493.336 385.535 493.43 371.401 492.808 357.405C492.343 346.911 491.727 336.373 491.382 325.829C448.952 311.142 352.85 274.574 351.599 274.115C340.86 270.122 330.101 265.809 319.198 262.477C317.866 263.401 317.829 297.548 317.816 298.145C317.37 324.905 317.351 351.797 317.169 378.644C317.144 382.329 315.503 386.195 317.766 390.113L495.498 477.27C496.07 478.156 496.233 478.98 497.477 478.571C501.606 472.152 509.744 467.015 513.665 460.438L523.776 450.692C525.385 448.838 527.044 446.467 528.47 444.952C531.153 442.097 533.975 439.639 536.545 436.873C540.052 433.094 543.52 429.258 546.989 425.436C547.75 424.599 548.673 424.065 548.661 422.732C543.074 422.537 535.885 422.091 530.161 421.38L530.167 421.361ZM495.498 468.844C495.498 470.14 494.549 472.177 494.825 474.566L319.142 389.402C318.042 388.346 318.407 376.412 318.463 373.866C319.06 348.012 319.62 322.05 319.839 296.115C319.839 295.668 319.839 295.216 319.839 294.769C319.909 284.91 319.305 274.907 320.518 265.142L351.473 277.265C351.473 277.265 443.755 311.563 489.452 328.105C490.797 329.225 489.955 339.008 490.093 341.605C490.345 346.201 491.269 351.476 491.47 356.053C492.205 373.099 492.808 391.345 493.487 408.579C493.619 411.93 493.355 415.332 493.487 418.677C493.587 421.217 494.084 424.109 494.159 426.083C494.297 429.617 494.033 432.71 494.159 436.187C494.235 438.331 494.781 440.827 494.832 442.248C495.014 447.366 495.504 453.176 495.504 458.074V468.851L495.498 468.844Z" fill="#0F0D0C"/>
<path d="M530.167 421.361L616.502 450.124L651.629 344.685L541.332 331.049L530.167 421.361ZM517.328 418.142L568.587 342.952L568.523 342.908L568.458 342.864L517.328 418.142ZM515.305 415.791L432.187 452.837L432.356 453.216L432.529 453.595L515.305 415.791ZM514.909 414.25L605.902 415.359L605.909 414.805V414.25H514.909ZM514.991 413.282L440.719 465.862L440.994 466.25L441.272 466.635L514.991 413.282ZM514.205 413.018L541.954 326.352L540.891 326.012L539.821 325.698L514.205 413.018ZM510.573 412.081L488.439 500.348L488.519 500.368L488.599 500.388L510.573 412.081ZM502.9 409.924L466.428 493.296L466.432 493.297L502.9 409.924ZM495.498 405.888L438.581 476.891L438.658 476.953L438.735 477.014L495.498 405.888ZM494.128 399.519L403.273 404.663L403.275 404.685L403.276 404.707L494.128 399.519ZM492.808 357.405L401.897 361.434L401.898 361.446L492.808 357.405ZM491.382 325.829L582.333 322.848L580.283 260.305L521.149 239.836L491.382 325.829ZM351.599 274.115L319.889 359.411L320.066 359.477L320.244 359.542L351.599 274.115ZM319.198 262.477L345.797 175.451L303.589 162.55L267.326 187.708L319.198 262.477ZM317.816 298.145L226.836 296.231L226.832 296.43L226.829 296.628L317.816 298.145ZM317.169 378.644L408.167 379.265L408.167 379.262L317.169 378.644ZM317.766 390.113L238.964 435.623L252.821 459.617L277.699 471.817L317.766 390.113ZM495.498 477.27L571.969 427.943L558.264 406.697L535.564 395.565L495.498 477.27ZM497.477 478.571L525.875 565.027L556.55 554.951L574.015 527.795L497.477 478.571ZM513.665 460.438L450.513 394.918L441.742 403.372L435.503 413.836L513.665 460.438ZM523.776 450.692L586.928 516.212L589.856 513.39L592.521 510.317L523.776 450.692ZM528.47 444.952L594.729 507.328L594.752 507.304L594.775 507.279L528.47 444.952ZM536.545 436.873L603.214 498.81L603.232 498.791L603.25 498.771L536.545 436.873ZM546.989 425.436L479.661 364.215L479.629 364.25L479.598 364.285L546.989 425.436ZM548.661 422.732L639.657 421.874L638.836 334.823L551.834 331.787L548.661 422.732ZM530.161 421.38L443.826 392.618L408.715 498.006L518.953 511.687L530.161 421.38ZM495.498 468.844L559.862 404.515L404.498 249.066V468.844H495.498ZM494.825 474.566L455.13 556.452L604.276 628.752L585.222 464.105L494.825 474.566ZM319.142 389.402L256.104 455.031L266.489 465.007L279.447 471.288L319.142 389.402ZM318.463 373.866L227.487 371.765L227.487 371.805L227.486 371.845L318.463 373.866ZM319.839 296.115L410.836 296.886L410.839 296.5V296.115H319.839ZM319.839 294.769L228.842 294.131L228.839 294.45V294.769H319.839ZM320.518 265.142L353.701 180.408L244.648 137.702L230.212 253.926L320.518 265.142ZM351.473 277.265L318.291 361.999L319.028 362.288L319.77 362.564L351.473 277.265ZM489.452 328.105L547.664 258.159L535.413 247.964L520.427 242.539L489.452 328.105ZM490.093 341.605L399.222 346.443L399.226 346.508L399.229 346.574L490.093 341.605ZM491.47 356.053L582.385 352.132L582.384 352.095L582.382 352.059L491.47 356.053ZM493.487 408.579L584.416 404.998V404.998L493.487 408.579ZM493.487 418.677L402.557 422.264L402.558 422.276L493.487 418.677ZM494.159 426.083L403.225 429.557L403.227 429.599L403.229 429.641L494.159 426.083ZM494.159 436.187L585.103 432.989L585.101 432.944L585.1 432.9L494.159 436.187ZM494.832 442.248L403.888 445.466L403.889 445.476L403.889 445.487L494.832 442.248ZM495.504 468.851L431.14 533.18L586.504 688.629V468.851H495.504ZM530.167 421.361L541.332 331.049C543.562 331.325 544.754 331.571 544.12 331.453C544.082 331.446 543.998 331.43 543.895 331.409C543.79 331.387 543.734 331.374 543.739 331.376C543.746 331.377 543.786 331.386 543.859 331.404C543.93 331.421 544.053 331.451 544.224 331.495C544.511 331.568 545.223 331.755 546.245 332.065C547.116 332.329 549.179 332.974 551.886 334.048C553.28 334.601 555.354 335.469 557.834 336.685C560.139 337.816 564.043 339.854 568.587 342.952L517.328 418.142L466.069 493.332C479.561 502.529 493.315 506.198 493.373 506.216C497.395 507.437 501.066 508.32 503.506 508.873C507.759 509.837 513.745 511.024 519.001 511.674L530.167 421.361ZM517.328 418.142L568.458 342.864C579.894 350.631 590.886 362.232 598.081 377.987L515.305 415.791L432.529 453.595C440.592 471.248 453.041 484.483 466.199 493.42L517.328 418.142ZM515.305 415.791L598.423 378.745C599.427 380.998 601.127 385.065 602.627 390.399C604.059 395.489 606.038 404.251 605.902 415.359L514.909 414.25L423.916 413.141C423.66 434.149 430.777 449.672 432.187 452.837L515.305 415.791ZM514.909 414.25H605.909C605.909 420.276 605.297 424.988 604.981 427.173C604.628 429.613 604.25 431.496 604.102 432.222C603.961 432.912 603.804 433.622 603.888 433.238C603.904 433.162 604.095 432.295 604.305 431.223C604.563 429.906 605.866 423.457 606.018 415.148C606.099 410.753 605.926 403.548 604.128 394.88C602.342 386.272 598.333 373.226 588.709 359.929L514.991 413.282L441.272 466.635C431.681 453.383 427.695 440.394 425.923 431.852C424.138 423.249 423.97 416.119 424.049 411.804C424.199 403.655 425.473 397.391 425.694 396.262C425.798 395.729 425.888 395.298 425.946 395.023C426.002 394.757 426.047 394.554 426.052 394.531C426.115 394.24 425.938 395.042 425.779 395.82C425.613 396.635 425.219 398.601 424.855 401.119C424.528 403.381 423.909 408.163 423.909 414.25H514.909ZM514.991 413.282L589.263 360.701C580.442 348.243 570.518 340.859 564.838 337.134C558.764 333.15 553.406 330.681 550.111 329.295C543.724 326.61 538.44 325.268 536.702 324.833C534.628 324.314 532.707 323.923 533.163 324.019C533.174 324.021 533.352 324.059 533.584 324.109C533.814 324.159 534.249 324.254 534.798 324.381C535.422 324.525 538.324 325.189 541.954 326.352L514.205 413.018L486.457 499.684C490.126 500.859 493.078 501.536 493.762 501.694C494.34 501.828 494.806 501.93 495.07 501.987C495.335 502.044 495.548 502.089 495.595 502.099C496.197 502.226 494.443 501.87 492.531 501.391C490.957 500.998 485.834 499.702 479.579 497.073C476.35 495.715 471.052 493.276 465.027 489.324C459.397 485.632 449.513 478.284 440.719 465.862L514.991 413.282ZM514.205 413.018L539.821 325.698C537.615 325.05 535.736 324.567 534.583 324.277C534.002 324.131 533.474 324.002 533.161 323.925C532.776 323.83 532.663 323.803 532.547 323.774L510.573 412.081L488.599 500.388C488.733 500.421 488.859 500.453 488.976 500.482C489.093 500.51 489.203 500.538 489.303 500.562C489.403 500.587 489.497 500.61 489.58 500.63C489.621 500.64 489.662 500.65 489.699 500.659C489.737 500.669 489.772 500.677 489.806 500.685C489.874 500.702 489.93 500.716 489.981 500.729C490.032 500.741 490.072 500.751 490.106 500.759C490.14 500.768 490.164 500.774 490.181 500.778C490.197 500.782 490.205 500.784 490.205 500.784C490.204 500.784 490.195 500.781 490.178 500.777C490.161 500.773 490.135 500.766 490.101 500.757C490.034 500.74 489.931 500.713 489.797 500.677C489.663 500.641 489.493 500.595 489.292 500.539C489.092 500.483 488.856 500.416 488.59 500.338L514.205 413.018ZM510.573 412.081L532.707 323.814C531.067 323.403 529.53 323.052 529.08 322.948C528.323 322.774 528.557 322.824 528.957 322.925C529.437 323.047 530.681 323.368 532.355 323.901C534.043 324.439 536.477 325.287 539.369 326.551L502.9 409.924L466.432 493.297C474.322 496.748 481.146 498.566 484.417 499.391C486.119 499.821 487.663 500.174 488.207 500.299C489.058 500.495 488.813 500.442 488.439 500.348L510.573 412.081ZM502.9 409.924L539.373 326.553C540.631 327.104 541.508 327.526 541.701 327.619C542.018 327.772 542.2 327.864 542.224 327.876C542.263 327.895 542.171 327.849 542.06 327.789C541.879 327.692 542.167 327.841 542.819 328.222C543.134 328.406 543.945 328.885 545.044 329.586C545.609 329.947 546.469 330.507 547.517 331.232C548.472 331.893 550.187 333.106 552.26 334.761L495.498 405.888L438.735 477.014C444.842 481.889 450.786 485.238 450.972 485.347C452.884 486.465 454.684 487.451 456.041 488.179C457.901 489.176 462.171 491.433 466.428 493.296L502.9 409.924ZM495.498 405.888L552.414 334.884C564.463 344.542 571.205 355.03 574.518 360.942C578.065 367.271 580.099 372.739 581.196 376.037C583.332 382.462 584.14 387.515 584.401 389.231C584.961 392.9 585.066 395.833 584.98 394.33L494.128 399.519L403.276 404.707C403.278 404.745 403.53 410.432 404.484 416.685C404.943 419.693 406.01 425.995 408.49 433.454C409.682 437.04 416.628 459.294 438.581 476.891L495.498 405.888ZM494.128 399.519L584.982 394.374C584.685 389.128 584.536 383.517 584.383 376.484C584.24 369.916 584.086 361.643 583.718 353.364L492.808 357.405L401.898 361.446C402.152 367.163 402.263 372.955 402.426 380.449C402.579 387.478 402.779 395.926 403.273 404.663L494.128 399.519ZM492.808 357.405L583.719 353.376C583.17 340.99 582.661 332.877 582.333 322.848L491.382 325.829L400.43 328.811C400.793 339.87 401.516 352.832 401.897 361.434L492.808 357.405ZM491.382 325.829L521.149 239.836C479.531 225.429 386.955 190.156 382.954 188.687L351.599 274.115L320.244 359.542C318.744 358.992 418.372 396.854 461.614 411.823L491.382 325.829ZM351.599 274.115L383.309 188.818C375.516 185.921 360.135 179.833 345.797 175.451L319.198 262.477L292.6 349.502C300.068 351.785 306.203 354.323 319.889 359.411L351.599 274.115ZM319.198 262.477L267.326 187.708C254.544 196.576 247.019 206.646 243.324 212.211C239.313 218.253 236.805 223.6 235.378 226.945C232.581 233.501 231.16 238.981 230.558 241.449C229.263 246.755 228.686 251.166 228.467 252.908C227.948 257.038 227.7 260.896 227.571 263.159C227.281 268.217 227.126 273.94 227.031 278.583C226.932 283.465 226.881 288.228 226.853 291.73C226.814 296.65 226.824 296.792 226.836 296.231L317.816 298.145L408.796 300.06C408.805 299.621 408.809 299.275 408.81 299.187C408.812 299.043 408.813 298.925 408.813 298.856C408.815 298.718 408.815 298.596 408.816 298.526C408.817 298.378 408.817 298.211 408.818 298.072C408.819 297.757 408.821 297.401 408.823 296.923C408.828 295.99 408.835 294.701 408.847 293.17C408.872 290.073 408.915 286.13 408.994 282.284C409.077 278.201 409.181 275.175 409.274 273.552C409.335 272.475 409.309 273.509 409.047 275.592C408.957 276.311 408.517 279.893 407.369 284.597C406.84 286.763 405.495 292 402.776 298.372C401.388 301.625 398.921 306.896 394.95 312.877C391.296 318.381 383.811 328.406 371.071 337.245L319.198 262.477ZM317.816 298.145L226.829 296.628C226.373 323.983 226.348 351.925 226.171 378.026L317.169 378.644L408.167 379.262C408.354 351.668 408.367 325.827 408.803 299.663L317.816 298.145ZM317.169 378.644L226.171 378.023C226.206 372.911 226.779 369.042 226.687 369.755C226.662 369.942 226.679 369.807 226.611 370.332C226.566 370.67 226.492 371.246 226.41 371.919C226.25 373.241 226.001 375.444 225.819 378.115C225.035 389.643 225.331 412.018 238.964 435.623L317.766 390.113L396.568 344.602C401.862 353.768 404.954 363.213 406.444 372.032C407.856 380.396 407.631 387.066 407.4 390.467C407.223 393.057 406.824 395.877 407.18 393.125C407.332 391.953 408.119 386.22 408.167 379.265L317.169 378.644ZM317.766 390.113L277.699 471.817L455.431 558.974L495.498 477.27L535.564 395.565L357.832 308.408L317.766 390.113ZM495.498 477.27L419.026 526.597C417.944 524.919 415.009 519.921 417.468 524.096C418.035 525.058 423.095 534.033 432.156 543.019C443.214 553.985 459.788 564.721 481.59 568.398C501.237 571.711 517.151 567.892 525.875 565.027L497.477 478.571L469.08 392.115C477.181 389.454 492.608 385.686 511.857 388.932C533.26 392.542 549.525 403.093 560.314 413.793C569.108 422.514 573.942 431.142 574.279 431.713C576.507 435.496 573.337 430.064 571.969 427.943L495.498 477.27ZM497.477 478.571L574.015 527.795C570.862 532.697 568.025 535.728 567.348 536.444C566.824 537 566.458 537.325 568.553 535.321C569.91 534.023 573.5 530.615 577.194 526.578C580.982 522.439 586.58 515.84 591.826 507.04L513.665 460.438L435.503 413.836C438.789 408.325 441.899 404.834 442.929 403.708C443.866 402.685 444.428 402.195 442.745 403.806C441.799 404.711 438.38 407.935 435.045 411.464C431.559 415.156 426.156 421.236 420.94 429.347L497.477 478.571ZM513.665 460.438L576.817 525.958L586.928 516.212L523.776 450.692L460.624 385.173L450.513 394.918L513.665 460.438ZM523.776 450.692L592.521 510.317C594.071 508.53 595.34 506.96 596.138 505.958C596.557 505.434 596.927 504.963 597.199 504.616C597.337 504.441 597.466 504.275 597.568 504.144C597.68 504.001 597.755 503.906 597.831 503.809C598.185 503.357 598.023 503.57 597.688 503.978C597.49 504.219 597.147 504.632 596.688 505.162C596.234 505.685 595.571 506.433 594.729 507.328L528.47 444.952L462.211 382.576C459.911 385.019 458.105 387.173 457.034 388.477C455.937 389.813 454.992 391.019 454.552 391.581C454.18 392.056 454.219 392.006 453.985 392.305C453.856 392.47 453.822 392.512 453.837 392.494C453.853 392.473 453.967 392.331 454.151 392.108C454.334 391.885 454.634 391.526 455.031 391.068L523.776 450.692ZM528.47 444.952L594.775 507.279C594.373 507.706 594.155 507.895 595.811 506.294C596.951 505.192 600.018 502.251 603.214 498.81L536.545 436.873L469.876 374.935C470.502 374.261 470.874 373.932 469.289 375.465C468.221 376.498 465.25 379.343 462.165 382.625L528.47 444.952ZM536.545 436.873L603.25 498.771C607.188 494.527 611.074 490.23 614.38 486.586L546.989 425.436L479.598 364.285C475.967 368.287 472.915 371.66 469.84 374.974L536.545 436.873ZM546.989 425.436L614.318 486.656C612.159 489.03 609.705 491.364 611.105 489.999C611.43 489.682 615.161 486.124 619.122 481.182C623.501 475.718 629.127 467.459 633.409 456.362C637.805 444.971 639.764 433.241 639.657 421.874L548.661 422.732L457.665 423.59C457.564 412.89 459.412 401.726 463.614 390.837C467.703 380.241 473.053 372.417 477.108 367.358C479.082 364.895 480.82 363.001 481.961 361.803C483.058 360.652 483.93 359.805 484.041 359.696C485.054 358.709 482.2 361.423 479.661 364.215L546.989 425.436ZM548.661 422.732L551.834 331.787C547.688 331.643 543.423 331.328 541.368 331.073L530.161 421.38L518.953 511.687C528.348 512.853 538.461 513.431 545.488 513.677L548.661 422.732ZM530.161 421.38L616.495 450.143L616.502 450.124L530.167 421.361L443.832 392.599L443.826 392.618L530.161 421.38ZM495.498 468.844H404.498C404.498 463.643 404.961 459.472 405.31 456.939C405.664 454.367 406.057 452.405 406.229 451.571C406.391 450.782 406.542 450.131 406.449 450.542C406.418 450.678 406.206 451.609 405.982 452.681C405.098 456.912 402.612 469.327 404.429 485.027L494.825 474.566L585.222 464.105C586.009 470.908 585.837 476.741 585.435 481.139C585.043 485.42 584.396 488.654 584.134 489.909C584.011 490.496 583.904 490.96 583.975 490.646C583.984 490.608 584.231 489.526 584.479 488.327C584.735 487.082 585.2 484.73 585.605 481.79C586.005 478.888 586.498 474.37 586.498 468.844H495.498ZM494.825 474.566L534.52 392.68L358.837 307.516L319.142 389.402L279.447 471.288L455.13 556.452L494.825 474.566ZM319.142 389.402L382.18 323.773C389.794 331.086 394.633 338.297 397.473 343.122C400.419 348.129 402.359 352.539 403.582 355.632C405.95 361.622 407.132 366.543 407.667 368.974C408.76 373.937 409.102 377.68 409.185 378.596C409.399 380.929 409.374 382.117 409.363 381.152C409.346 379.65 409.394 377.973 409.441 375.886L318.463 373.866L227.486 371.845C227.475 372.304 227.314 377.868 227.375 383.233C227.403 385.702 227.49 390.231 227.942 395.178C228.146 397.401 228.639 402.27 229.922 408.097C230.552 410.96 231.84 416.248 234.323 422.531C236.122 427.082 242.038 441.521 256.104 455.031L319.142 389.402ZM318.463 373.866L409.439 375.966C410.037 350.087 410.61 323.546 410.836 296.886L319.839 296.115L228.843 295.343C228.629 320.555 228.084 345.936 227.487 371.765L318.463 373.866ZM319.839 296.115H410.839C410.839 296.114 410.839 296.113 410.839 296.112C410.839 296.111 410.839 296.11 410.839 296.109C410.839 296.109 410.839 296.108 410.839 296.107C410.839 296.106 410.839 296.105 410.839 296.104C410.839 296.103 410.839 296.102 410.839 296.102C410.839 296.101 410.839 296.1 410.839 296.099C410.839 296.098 410.839 296.097 410.839 296.096C410.839 296.095 410.839 296.095 410.839 296.094C410.839 296.093 410.839 296.092 410.839 296.091C410.839 296.09 410.839 296.089 410.839 296.088C410.839 296.088 410.839 296.087 410.839 296.086C410.839 296.085 410.839 296.084 410.839 296.083C410.839 296.082 410.839 296.081 410.839 296.081C410.839 296.08 410.839 296.079 410.839 296.078C410.839 296.077 410.839 296.076 410.839 296.075C410.839 296.074 410.839 296.074 410.839 296.073C410.839 296.072 410.839 296.071 410.839 296.07C410.839 296.069 410.839 296.068 410.839 296.068C410.839 296.067 410.839 296.066 410.839 296.065C410.839 296.064 410.839 296.063 410.839 296.062C410.839 296.061 410.839 296.061 410.839 296.06C410.839 296.059 410.839 296.058 410.839 296.057C410.839 296.056 410.839 296.055 410.839 296.054C410.839 296.054 410.839 296.053 410.839 296.052C410.839 296.051 410.839 296.05 410.839 296.049C410.839 296.048 410.839 296.047 410.839 296.047C410.839 296.046 410.839 296.045 410.839 296.044C410.839 296.043 410.839 296.042 410.839 296.041C410.839 296.04 410.839 296.04 410.839 296.039C410.839 296.038 410.839 296.037 410.839 296.036C410.839 296.035 410.839 296.034 410.839 296.033C410.839 296.033 410.839 296.032 410.839 296.031C410.839 296.03 410.839 296.029 410.839 296.028C410.839 296.027 410.839 296.026 410.839 296.026C410.839 296.025 410.839 296.024 410.839 296.023C410.839 296.022 410.839 296.021 410.839 296.02C410.839 296.019 410.839 296.019 410.839 296.018C410.839 296.017 410.839 296.016 410.839 296.015C410.839 296.014 410.839 296.013 410.839 296.012C410.839 296.012 410.839 296.011 410.839 296.01C410.839 296.009 410.839 296.008 410.839 296.007C410.839 296.006 410.839 296.006 410.839 296.005C410.839 296.004 410.839 296.003 410.839 296.002C410.839 296.001 410.839 296 410.839 295.999C410.839 295.999 410.839 295.998 410.839 295.997C410.839 295.996 410.839 295.995 410.839 295.994C410.839 295.993 410.839 295.992 410.839 295.992C410.839 295.991 410.839 295.99 410.839 295.989C410.839 295.988 410.839 295.987 410.839 295.986C410.839 295.985 410.839 295.985 410.839 295.984C410.839 295.983 410.839 295.982 410.839 295.981C410.839 295.98 410.839 295.979 410.839 295.978C410.839 295.978 410.839 295.977 410.839 295.976C410.839 295.975 410.839 295.974 410.839 295.973C410.839 295.972 410.839 295.971 410.839 295.971C410.839 295.97 410.839 295.969 410.839 295.968C410.839 295.967 410.839 295.966 410.839 295.965C410.839 295.964 410.839 295.964 410.839 295.963C410.839 295.962 410.839 295.961 410.839 295.96C410.839 295.959 410.839 295.958 410.839 295.957C410.839 295.957 410.839 295.956 410.839 295.955C410.839 295.954 410.839 295.953 410.839 295.952C410.839 295.951 410.839 295.95 410.839 295.95C410.839 295.949 410.839 295.948 410.839 295.947C410.839 295.946 410.839 295.945 410.839 295.944C410.839 295.943 410.839 295.943 410.839 295.942C410.839 295.941 410.839 295.94 410.839 295.939C410.839 295.938 410.839 295.937 410.839 295.936C410.839 295.936 410.839 295.935 410.839 295.934C410.839 295.933 410.839 295.932 410.839 295.931C410.839 295.93 410.839 295.929 410.839 295.929C410.839 295.928 410.839 295.927 410.839 295.926C410.839 295.925 410.839 295.924 410.839 295.923C410.839 295.922 410.839 295.922 410.839 295.921C410.839 295.92 410.839 295.919 410.839 295.918C410.839 295.917 410.839 295.916 410.839 295.915C410.839 295.915 410.839 295.914 410.839 295.913C410.839 295.912 410.839 295.911 410.839 295.91C410.839 295.909 410.839 295.908 410.839 295.908C410.839 295.907 410.839 295.906 410.839 295.905C410.839 295.904 410.839 295.903 410.839 295.902C410.839 295.901 410.839 295.901 410.839 295.9C410.839 295.899 410.839 295.898 410.839 295.897C410.839 295.896 410.839 295.895 410.839 295.894C410.839 295.894 410.839 295.893 410.839 295.892C410.839 295.891 410.839 295.89 410.839 295.889C410.839 295.888 410.839 295.887 410.839 295.887C410.839 295.886 410.839 295.885 410.839 295.884C410.839 295.883 410.839 295.882 410.839 295.881C410.839 295.88 410.839 295.88 410.839 295.879C410.839 295.878 410.839 295.877 410.839 295.876C410.839 295.875 410.839 295.874 410.839 295.873C410.839 295.873 410.839 295.872 410.839 295.871C410.839 295.87 410.839 295.869 410.839 295.868C410.839 295.867 410.839 295.866 410.839 295.866C410.839 295.865 410.839 295.864 410.839 295.863C410.839 295.862 410.839 295.861 410.839 295.86C410.839 295.859 410.839 295.859 410.839 295.858C410.839 295.857 410.839 295.856 410.839 295.855C410.839 295.854 410.839 295.853 410.839 295.852C410.839 295.852 410.839 295.851 410.839 295.85C410.839 295.849 410.839 295.848 410.839 295.847C410.839 295.846 410.839 295.845 410.839 295.845C410.839 295.844 410.839 295.843 410.839 295.842C410.839 295.841 410.839 295.84 410.839 295.839C410.839 295.838 410.839 295.838 410.839 295.837C410.839 295.836 410.839 295.835 410.839 295.834C410.839 295.833 410.839 295.832 410.839 295.831C410.839 295.831 410.839 295.83 410.839 295.829C410.839 295.828 410.839 295.827 410.839 295.826C410.839 295.825 410.839 295.824 410.839 295.824C410.839 295.823 410.839 295.822 410.839 295.821C410.839 295.82 410.839 295.819 410.839 295.818C410.839 295.817 410.839 295.817 410.839 295.816C410.839 295.815 410.839 295.814 410.839 295.813C410.839 295.812 410.839 295.811 410.839 295.81C410.839 295.809 410.839 295.809 410.839 295.808C410.839 295.807 410.839 295.806 410.839 295.805C410.839 295.804 410.839 295.803 410.839 295.802C410.839 295.802 410.839 295.801 410.839 295.8C410.839 295.799 410.839 295.798 410.839 295.797C410.839 295.796 410.839 295.795 410.839 295.795C410.839 295.794 410.839 295.793 410.839 295.792C410.839 295.791 410.839 295.79 410.839 295.789C410.839 295.788 410.839 295.788 410.839 295.787C410.839 295.786 410.839 295.785 410.839 295.784C410.839 295.783 410.839 295.782 410.839 295.781C410.839 295.781 410.839 295.78 410.839 295.779C410.839 295.778 410.839 295.777 410.839 295.776C410.839 295.775 410.839 295.774 410.839 295.774C410.839 295.773 410.839 295.772 410.839 295.771C410.839 295.77 410.839 295.769 410.839 295.768C410.839 295.767 410.839 295.767 410.839 295.766C410.839 295.765 410.839 295.764 410.839 295.763C410.839 295.762 410.839 295.761 410.839 295.76C410.839 295.76 410.839 295.759 410.839 295.758C410.839 295.757 410.839 295.756 410.839 295.755C410.839 295.754 410.839 295.753 410.839 295.753C410.839 295.752 410.839 295.751 410.839 295.75C410.839 295.749 410.839 295.748 410.839 295.747C410.839 295.746 410.839 295.746 410.839 295.745C410.839 295.744 410.839 295.743 410.839 295.742C410.839 295.741 410.839 295.74 410.839 295.739C410.839 295.738 410.839 295.738 410.839 295.737C410.839 295.736 410.839 295.735 410.839 295.734C410.839 295.733 410.839 295.732 410.839 295.731C410.839 295.731 410.839 295.73 410.839 295.729C410.839 295.728 410.839 295.727 410.839 295.726C410.839 295.725 410.839 295.724 410.839 295.724C410.839 295.723 410.839 295.722 410.839 295.721C410.839 295.72 410.839 295.719 410.839 295.718C410.839 295.717 410.839 295.717 410.839 295.716C410.839 295.715 410.839 295.714 410.839 295.713C410.839 295.712 410.839 295.711 410.839 295.71C410.839 295.71 410.839 295.709 410.839 295.708C410.839 295.707 410.839 295.706 410.839 295.705C410.839 295.704 410.839 295.703 410.839 295.703C410.839 295.702 410.839 295.701 410.839 295.7C410.839 295.699 410.839 295.698 410.839 295.697C410.839 295.696 410.839 295.696 410.839 295.695C410.839 295.694 410.839 295.693 410.839 295.692C410.839 295.691 410.839 295.69 410.839 295.689C410.839 295.689 410.839 295.688 410.839 295.687C410.839 295.686 410.839 295.685 410.839 295.684C410.839 295.683 410.839 295.682 410.839 295.681C410.839 295.681 410.839 295.68 410.839 295.679C410.839 295.678 410.839 295.677 410.839 295.676C410.839 295.675 410.839 295.674 410.839 295.674C410.839 295.673 410.839 295.672 410.839 295.671C410.839 295.67 410.839 295.669 410.839 295.668C410.839 295.667 410.839 295.667 410.839 295.666C410.839 295.665 410.839 295.664 410.839 295.663C410.839 295.662 410.839 295.661 410.839 295.66C410.839 295.66 410.839 295.659 410.839 295.658C410.839 295.657 410.839 295.656 410.839 295.655C410.839 295.654 410.839 295.653 410.839 295.653C410.839 295.652 410.839 295.651 410.839 295.65C410.839 295.649 410.839 295.648 410.839 295.647C410.839 295.646 410.839 295.646 410.839 295.645C410.839 295.644 410.839 295.643 410.839 295.642C410.839 295.641 410.839 295.64 410.839 295.639C410.839 295.638 410.839 295.638 410.839 295.637C410.839 295.636 410.839 295.635 410.839 295.634C410.839 295.633 410.839 295.632 410.839 295.631C410.839 295.631 410.839 295.63 410.839 295.629C410.839 295.628 410.839 295.627 410.839 295.626C410.839 295.625 410.839 295.624 410.839 295.624C410.839 295.623 410.839 295.622 410.839 295.621C410.839 295.62 410.839 295.619 410.839 295.618C410.839 295.617 410.839 295.617 410.839 295.616C410.839 295.615 410.839 295.614 410.839 295.613C410.839 295.612 410.839 295.611 410.839 295.61C410.839 295.61 410.839 295.609 410.839 295.608C410.839 295.607 410.839 295.606 410.839 295.605C410.839 295.604 410.839 295.603 410.839 295.603C410.839 295.602 410.839 295.601 410.839 295.6C410.839 295.599 410.839 295.598 410.839 295.597C410.839 295.596 410.839 295.595 410.839 295.595C410.839 295.594 410.839 295.593 410.839 295.592C410.839 295.591 410.839 295.59 410.839 295.589C410.839 295.588 410.839 295.588 410.839 295.587C410.839 295.586 410.839 295.585 410.839 295.584C410.839 295.583 410.839 295.582 410.839 295.581C410.839 295.581 410.839 295.58 410.839 295.579C410.839 295.578 410.839 295.577 410.839 295.576C410.839 295.575 410.839 295.574 410.839 295.574C410.839 295.573 410.839 295.572 410.839 295.571C410.839 295.57 410.839 295.569 410.839 295.568C410.839 295.567 410.839 295.567 410.839 295.566C410.839 295.565 410.839 295.564 410.839 295.563C410.839 295.562 410.839 295.561 410.839 295.56C410.839 295.56 410.839 295.559 410.839 295.558C410.839 295.557 410.839 295.556 410.839 295.555C410.839 295.554 410.839 295.553 410.839 295.552C410.839 295.552 410.839 295.551 410.839 295.55C410.839 295.549 410.839 295.548 410.839 295.547C410.839 295.546 410.839 295.545 410.839 295.545C410.839 295.544 410.839 295.543 410.839 295.542C410.839 295.541 410.839 295.54 410.839 295.539C410.839 295.538 410.839 295.538 410.839 295.537C410.839 295.536 410.839 295.535 410.839 295.534C410.839 295.533 410.839 295.532 410.839 295.531C410.839 295.531 410.839 295.53 410.839 295.529C410.839 295.528 410.839 295.527 410.839 295.526C410.839 295.525 410.839 295.524 410.839 295.524C410.839 295.523 410.839 295.522 410.839 295.521C410.839 295.52 410.839 295.519 410.839 295.518C410.839 295.517 410.839 295.516 410.839 295.516C410.839 295.515 410.839 295.514 410.839 295.513C410.839 295.512 410.839 295.511 410.839 295.51C410.839 295.509 410.839 295.509 410.839 295.508C410.839 295.507 410.839 295.506 410.839 295.505C410.839 295.504 410.839 295.503 410.839 295.502C410.839 295.502 410.839 295.501 410.839 295.5C410.839 295.499 410.839 295.498 410.839 295.497C410.839 295.496 410.839 295.495 410.839 295.495C410.839 295.494 410.839 295.493 410.839 295.492C410.839 295.491 410.839 295.49 410.839 295.489C410.839 295.488 410.839 295.488 410.839 295.487C410.839 295.486 410.839 295.485 410.839 295.484C410.839 295.483 410.839 295.482 410.839 295.481C410.839 295.48 410.839 295.48 410.839 295.479C410.839 295.478 410.839 295.477 410.839 295.476C410.839 295.475 410.839 295.474 410.839 295.473C410.839 295.473 410.839 295.472 410.839 295.471C410.839 295.47 410.839 295.469 410.839 295.468C410.839 295.467 410.839 295.466 410.839 295.466C410.839 295.465 410.839 295.464 410.839 295.463C410.839 295.462 410.839 295.461 410.839 295.46C410.839 295.459 410.839 295.459 410.839 295.458C410.839 295.457 410.839 295.456 410.839 295.455C410.839 295.454 410.839 295.453 410.839 295.452C410.839 295.452 410.839 295.451 410.839 295.45C410.839 295.449 410.839 295.448 410.839 295.447C410.839 295.446 410.839 295.445 410.839 295.444C410.839 295.444 410.839 295.443 410.839 295.442C410.839 295.441 410.839 295.44 410.839 295.439C410.839 295.438 410.839 295.437 410.839 295.437C410.839 295.436 410.839 295.435 410.839 295.434C410.839 295.433 410.839 295.432 410.839 295.431C410.839 295.43 410.839 295.43 410.839 295.429C410.839 295.428 410.839 295.427 410.839 295.426C410.839 295.425 410.839 295.424 410.839 295.423C410.839 295.423 410.839 295.422 410.839 295.421C410.839 295.42 410.839 295.419 410.839 295.418C410.839 295.417 410.839 295.416 410.839 295.416C410.839 295.415 410.839 295.414 410.839 295.413C410.839 295.412 410.839 295.411 410.839 295.41C410.839 295.409 410.839 295.408 410.839 295.408C410.839 295.407 410.839 295.406 410.839 295.405C410.839 295.404 410.839 295.403 410.839 295.402C410.839 295.401 410.839 295.401 410.839 295.4C410.839 295.399 410.839 295.398 410.839 295.397C410.839 295.396 410.839 295.395 410.839 295.394C410.839 295.394 410.839 295.393 410.839 295.392C410.839 295.391 410.839 295.39 410.839 295.389C410.839 295.388 410.839 295.387 410.839 295.387C410.839 295.386 410.839 295.385 410.839 295.384C410.839 295.383 410.839 295.382 410.839 295.381C410.839 295.38 410.839 295.38 410.839 295.379C410.839 295.378 410.839 295.377 410.839 295.376C410.839 295.375 410.839 295.374 410.839 295.373C410.839 295.373 410.839 295.372 410.839 295.371C410.839 295.37 410.839 295.369 410.839 295.368C410.839 295.367 410.839 295.366 410.839 295.365C410.839 295.365 410.839 295.364 410.839 295.363C410.839 295.362 410.839 295.361 410.839 295.36C410.839 295.359 410.839 295.358 410.839 295.358C410.839 295.357 410.839 295.356 410.839 295.355C410.839 295.354 410.839 295.353 410.839 295.352C410.839 295.351 410.839 295.351 410.839 295.35C410.839 295.349 410.839 295.348 410.839 295.347C410.839 295.346 410.839 295.345 410.839 295.344C410.839 295.344 410.839 295.343 410.839 295.342C410.839 295.341 410.839 295.34 410.839 295.339C410.839 295.338 410.839 295.337 410.839 295.337C410.839 295.336 410.839 295.335 410.839 295.334C410.839 295.333 410.839 295.332 410.839 295.331C410.839 295.33 410.839 295.329 410.839 295.329C410.839 295.328 410.839 295.327 410.839 295.326C410.839 295.325 410.839 295.324 410.839 295.323C410.839 295.322 410.839 295.322 410.839 295.321C410.839 295.32 410.839 295.319 410.839 295.318C410.839 295.317 410.839 295.316 410.839 295.315C410.839 295.315 410.839 295.314 410.839 295.313C410.839 295.312 410.839 295.311 410.839 295.31C410.839 295.309 410.839 295.308 410.839 295.308C410.839 295.307 410.839 295.306 410.839 295.305C410.839 295.304 410.839 295.303 410.839 295.302C410.839 295.301 410.839 295.301 410.839 295.3C410.839 295.299 410.839 295.298 410.839 295.297C410.839 295.296 410.839 295.295 410.839 295.294C410.839 295.293 410.839 295.293 410.839 295.292C410.839 295.291 410.839 295.29 410.839 295.289C410.839 295.288 410.839 295.287 410.839 295.286C410.839 295.286 410.839 295.285 410.839 295.284C410.839 295.283 410.839 295.282 410.839 295.281C410.839 295.28 410.839 295.279 410.839 295.279C410.839 295.278 410.839 295.277 410.839 295.276C410.839 295.275 410.839 295.274 410.839 295.273C410.839 295.272 410.839 295.272 410.839 295.271C410.839 295.27 410.839 295.269 410.839 295.268C410.839 295.267 410.839 295.266 410.839 295.265C410.839 295.265 410.839 295.264 410.839 295.263C410.839 295.262 410.839 295.261 410.839 295.26C410.839 295.259 410.839 295.258 410.839 295.258C410.839 295.257 410.839 295.256 410.839 295.255C410.839 295.254 410.839 295.253 410.839 295.252C410.839 295.251 410.839 295.25 410.839 295.25C410.839 295.249 410.839 295.248 410.839 295.247C410.839 295.246 410.839 295.245 410.839 295.244C410.839 295.243 410.839 295.243 410.839 295.242C410.839 295.241 410.839 295.24 410.839 295.239C410.839 295.238 410.839 295.237 410.839 295.236C410.839 295.236 410.839 295.235 410.839 295.234C410.839 295.233 410.839 295.232 410.839 295.231C410.839 295.23 410.839 295.229 410.839 295.229C410.839 295.228 410.839 295.227 410.839 295.226C410.839 295.225 410.839 295.224 410.839 295.223C410.839 295.222 410.839 295.222 410.839 295.221C410.839 295.22 410.839 295.219 410.839 295.218C410.839 295.217 410.839 295.216 410.839 295.215C410.839 295.215 410.839 295.214 410.839 295.213C410.839 295.212 410.839 295.211 410.839 295.21C410.839 295.209 410.839 295.208 410.839 295.208C410.839 295.207 410.839 295.206 410.839 295.205C410.839 295.204 410.839 295.203 410.839 295.202C410.839 295.201 410.839 295.2 410.839 295.2C410.839 295.199 410.839 295.198 410.839 295.197C410.839 295.196 410.839 295.195 410.839 295.194C410.839 295.193 410.839 295.193 410.839 295.192C410.839 295.191 410.839 295.19 410.839 295.189C410.839 295.188 410.839 295.187 410.839 295.186C410.839 295.186 410.839 295.185 410.839 295.184C410.839 295.183 410.839 295.182 410.839 295.181C410.839 295.18 410.839 295.179 410.839 295.179C410.839 295.178 410.839 295.177 410.839 295.176C410.839 295.175 410.839 295.174 410.839 295.173C410.839 295.172 410.839 295.172 410.839 295.171C410.839 295.17 410.839 295.169 410.839 295.168C410.839 295.167 410.839 295.166 410.839 295.165C410.839 295.165 410.839 295.164 410.839 295.163C410.839 295.162 410.839 295.161 410.839 295.16C410.839 295.159 410.839 295.158 410.839 295.158C410.839 295.157 410.839 295.156 410.839 295.155C410.839 295.154 410.839 295.153 410.839 295.152C410.839 295.151 410.839 295.15 410.839 295.15C410.839 295.149 410.839 295.148 410.839 295.147C410.839 295.146 410.839 295.145 410.839 295.144C410.839 295.143 410.839 295.143 410.839 295.142C410.839 295.141 410.839 295.14 410.839 295.139C410.839 295.138 410.839 295.137 410.839 295.136C410.839 295.136 410.839 295.135 410.839 295.134C410.839 295.133 410.839 295.132 410.839 295.131C410.839 295.13 410.839 295.129 410.839 295.129C410.839 295.128 410.839 295.127 410.839 295.126C410.839 295.125 410.839 295.124 410.839 295.123C410.839 295.122 410.839 295.122 410.839 295.121C410.839 295.12 410.839 295.119 410.839 295.118C410.839 295.117 410.839 295.116 410.839 295.115C410.839 295.115 410.839 295.114 410.839 295.113C410.839 295.112 410.839 295.111 410.839 295.11C410.839 295.109 410.839 295.108 410.839 295.108C410.839 295.107 410.839 295.106 410.839 295.105C410.839 295.104 410.839 295.103 410.839 295.102C410.839 295.101 410.839 295.101 410.839 295.1C410.839 295.099 410.839 295.098 410.839 295.097C410.839 295.096 410.839 295.095 410.839 295.094C410.839 295.094 410.839 295.093 410.839 295.092C410.839 295.091 410.839 295.09 410.839 295.089C410.839 295.088 410.839 295.087 410.839 295.086C410.839 295.086 410.839 295.085 410.839 295.084C410.839 295.083 410.839 295.082 410.839 295.081C410.839 295.08 410.839 295.079 410.839 295.079C410.839 295.078 410.839 295.077 410.839 295.076C410.839 295.075 410.839 295.074 410.839 295.073C410.839 295.072 410.839 295.072 410.839 295.071C410.839 295.07 410.839 295.069 410.839 295.068C410.839 295.067 410.839 295.066 410.839 295.065C410.839 295.065 410.839 295.064 410.839 295.063C410.839 295.062 410.839 295.061 410.839 295.06C410.839 295.059 410.839 295.058 410.839 295.058C410.839 295.057 410.839 295.056 410.839 295.055C410.839 295.054 410.839 295.053 410.839 295.052C410.839 295.051 410.839 295.051 410.839 295.05C410.839 295.049 410.839 295.048 410.839 295.047C410.839 295.046 410.839 295.045 410.839 295.044C410.839 295.044 410.839 295.043 410.839 295.042C410.839 295.041 410.839 295.04 410.839 295.039C410.839 295.038 410.839 295.037 410.839 295.037C410.839 295.036 410.839 295.035 410.839 295.034C410.839 295.033 410.839 295.032 410.839 295.031C410.839 295.03 410.839 295.03 410.839 295.029C410.839 295.028 410.839 295.027 410.839 295.026C410.839 295.025 410.839 295.024 410.839 295.023C410.839 295.023 410.839 295.022 410.839 295.021C410.839 295.02 410.839 295.019 410.839 295.018C410.839 295.017 410.839 295.016 410.839 295.016C410.839 295.015 410.839 295.014 410.839 295.013C410.839 295.012 410.839 295.011 410.839 295.01C410.839 295.009 410.839 295.009 410.839 295.008C410.839 295.007 410.839 295.006 410.839 295.005C410.839 295.004 410.839 295.003 410.839 295.002C410.839 295.002 410.839 295.001 410.839 295C410.839 294.999 410.839 294.998 410.839 294.997C410.839 294.996 410.839 294.995 410.839 294.995C410.839 294.994 410.839 294.993 410.839 294.992C410.839 294.991 410.839 294.99 410.839 294.989C410.839 294.988 410.839 294.988 410.839 294.987C410.839 294.986 410.839 294.985 410.839 294.984C410.839 294.983 410.839 294.982 410.839 294.981C410.839 294.981 410.839 294.98 410.839 294.979C410.839 294.978 410.839 294.977 410.839 294.976C410.839 294.975 410.839 294.974 410.839 294.974C410.839 294.973 410.839 294.972 410.839 294.971C410.839 294.97 410.839 294.969 410.839 294.968C410.839 294.967 410.839 294.967 410.839 294.966C410.839 294.965 410.839 294.964 410.839 294.963C410.839 294.962 410.839 294.961 410.839 294.96C410.839 294.96 410.839 294.959 410.839 294.958C410.839 294.957 410.839 294.956 410.839 294.955C410.839 294.954 410.839 294.953 410.839 294.953C410.839 294.952 410.839 294.951 410.839 294.95C410.839 294.949 410.839 294.948 410.839 294.947C410.839 294.946 410.839 294.946 410.839 294.945C410.839 294.944 410.839 294.943 410.839 294.942C410.839 294.941 410.839 294.94 410.839 294.939C410.839 294.939 410.839 294.938 410.839 294.937C410.839 294.936 410.839 294.935 410.839 294.934C410.839 294.933 410.839 294.932 410.839 294.932C410.839 294.931 410.839 294.93 410.839 294.929C410.839 294.928 410.839 294.927 410.839 294.926C410.839 294.925 410.839 294.925 410.839 294.924C410.839 294.923 410.839 294.922 410.839 294.921C410.839 294.92 410.839 294.919 410.839 294.918C410.839 294.918 410.839 294.917 410.839 294.916C410.839 294.915 410.839 294.914 410.839 294.913C410.839 294.912 410.839 294.911 410.839 294.911C410.839 294.91 410.839 294.909 410.839 294.908C410.839 294.907 410.839 294.906 410.839 294.905C410.839 294.904 410.839 294.904 410.839 294.903C410.839 294.902 410.839 294.901 410.839 294.9C410.839 294.899 410.839 294.898 410.839 294.897C410.839 294.897 410.839 294.896 410.839 294.895C410.839 294.894 410.839 294.893 410.839 294.892C410.839 294.891 410.839 294.89 410.839 294.89C410.839 294.889 410.839 294.888 410.839 294.887C410.839 294.886 410.839 294.885 410.839 294.884C410.839 294.883 410.839 294.883 410.839 294.882C410.839 294.881 410.839 294.88 410.839 294.879C410.839 294.878 410.839 294.877 410.839 294.876C410.839 294.876 410.839 294.875 410.839 294.874C410.839 294.873 410.839 294.872 410.839 294.871C410.839 294.87 410.839 294.869 410.839 294.869C410.839 294.868 410.839 294.867 410.839 294.866C410.839 294.865 410.839 294.864 410.839 294.863C410.839 294.862 410.839 294.862 410.839 294.861C410.839 294.86 410.839 294.859 410.839 294.858C410.839 294.857 410.839 294.856 410.839 294.856C410.839 294.855 410.839 294.854 410.839 294.853C410.839 294.852 410.839 294.851 410.839 294.85C410.839 294.849 410.839 294.849 410.839 294.848C410.839 294.847 410.839 294.846 410.839 294.845C410.839 294.844 410.839 294.843 410.839 294.842C410.839 294.842 410.839 294.841 410.839 294.84C410.839 294.839 410.839 294.838 410.839 294.837C410.839 294.836 410.839 294.835 410.839 294.835C410.839 294.834 410.839 294.833 410.839 294.832C410.839 294.831 410.839 294.83 410.839 294.829C410.839 294.828 410.839 294.828 410.839 294.827C410.839 294.826 410.839 294.825 410.839 294.824C410.839 294.823 410.839 294.822 410.839 294.821C410.839 294.821 410.839 294.82 410.839 294.819C410.839 294.818 410.839 294.817 410.839 294.816C410.839 294.815 410.839 294.814 410.839 294.814C410.839 294.813 410.839 294.812 410.839 294.811C410.839 294.81 410.839 294.809 410.839 294.808C410.839 294.807 410.839 294.807 410.839 294.806C410.839 294.805 410.839 294.804 410.839 294.803C410.839 294.802 410.839 294.801 410.839 294.801C410.839 294.8 410.839 294.799 410.839 294.798C410.839 294.797 410.839 294.796 410.839 294.795C410.839 294.794 410.839 294.794 410.839 294.793C410.839 294.792 410.839 294.791 410.839 294.79C410.839 294.789 410.839 294.788 410.839 294.787C410.839 294.787 410.839 294.786 410.839 294.785C410.839 294.784 410.839 294.783 410.839 294.782C410.839 294.781 410.839 294.78 410.839 294.78C410.839 294.779 410.839 294.778 410.839 294.777C410.839 294.776 410.839 294.775 410.839 294.774C410.839 294.773 410.839 294.773 410.839 294.772C410.839 294.771 410.839 294.77 410.839 294.769H319.839H228.839C228.839 294.77 228.839 294.771 228.839 294.772C228.839 294.773 228.839 294.773 228.839 294.774C228.839 294.775 228.839 294.776 228.839 294.777C228.839 294.778 228.839 294.779 228.839 294.78C228.839 294.78 228.839 294.781 228.839 294.782C228.839 294.783 228.839 294.784 228.839 294.785C228.839 294.786 228.839 294.787 228.839 294.787C228.839 294.788 228.839 294.789 228.839 294.79C228.839 294.791 228.839 294.792 228.839 294.793C228.839 294.794 228.839 294.794 228.839 294.795C228.839 294.796 228.839 294.797 228.839 294.798C228.839 294.799 228.839 294.8 228.839 294.801C228.839 294.801 228.839 294.802 228.839 294.803C228.839 294.804 228.839 294.805 228.839 294.806C228.839 294.807 228.839 294.807 228.839 294.808C228.839 294.809 228.839 294.81 228.839 294.811C228.839 294.812 228.839 294.813 228.839 294.814C228.839 294.814 228.839 294.815 228.839 294.816C228.839 294.817 228.839 294.818 228.839 294.819C228.839 294.82 228.839 294.821 228.839 294.821C228.839 294.822 228.839 294.823 228.839 294.824C228.839 294.825 228.839 294.826 228.839 294.827C228.839 294.828 228.839 294.828 228.839 294.829C228.839 294.83 228.839 294.831 228.839 294.832C228.839 294.833 228.839 294.834 228.839 294.835C228.839 294.835 228.839 294.836 228.839 294.837C228.839 294.838 228.839 294.839 228.839 294.84C228.839 294.841 228.839 294.842 228.839 294.842C228.839 294.843 228.839 294.844 228.839 294.845C228.839 294.846 228.839 294.847 228.839 294.848C228.839 294.849 228.839 294.849 228.839 294.85C228.839 294.851 228.839 294.852 228.839 294.853C228.839 294.854 228.839 294.855 228.839 294.856C228.839 294.856 228.839 294.857 228.839 294.858C228.839 294.859 228.839 294.86 228.839 294.861C228.839 294.862 228.839 294.862 228.839 294.863C228.839 294.864 228.839 294.865 228.839 294.866C228.839 294.867 228.839 294.868 228.839 294.869C228.839 294.869 228.839 294.87 228.839 294.871C228.839 294.872 228.839 294.873 228.839 294.874C228.839 294.875 228.839 294.876 228.839 294.876C228.839 294.877 228.839 294.878 228.839 294.879C228.839 294.88 228.839 294.881 228.839 294.882C228.839 294.883 228.839 294.883 228.839 294.884C228.839 294.885 228.839 294.886 228.839 294.887C228.839 294.888 228.839 294.889 228.839 294.89C228.839 294.89 228.839 294.891 228.839 294.892C228.839 294.893 228.839 294.894 228.839 294.895C228.839 294.896 228.839 294.897 228.839 294.897C228.839 294.898 228.839 294.899 228.839 294.9C228.839 294.901 228.839 294.902 228.839 294.903C228.839 294.904 228.839 294.904 228.839 294.905C228.839 294.906 228.839 294.907 228.839 294.908C228.839 294.909 228.839 294.91 228.839 294.911C228.839 294.911 228.839 294.912 228.839 294.913C228.839 294.914 228.839 294.915 228.839 294.916C228.839 294.917 228.839 294.918 228.839 294.918C228.839 294.919 228.839 294.92 228.839 294.921C228.839 294.922 228.839 294.923 228.839 294.924C228.839 294.925 228.839 294.925 228.839 294.926C228.839 294.927 228.839 294.928 228.839 294.929C228.839 294.93 228.839 294.931 228.839 294.932C228.839 294.932 228.839 294.933 228.839 294.934C228.839 294.935 228.839 294.936 228.839 294.937C228.839 294.938 228.839 294.939 228.839 294.939C228.839 294.94 228.839 294.941 228.839 294.942C228.839 294.943 228.839 294.944 228.839 294.945C228.839 294.946 228.839 294.946 228.839 294.947C228.839 294.948 228.839 294.949 228.839 294.95C228.839 294.951 228.839 294.952 228.839 294.953C228.839 294.953 228.839 294.954 228.839 294.955C228.839 294.956 228.839 294.957 228.839 294.958C228.839 294.959 228.839 294.96 228.839 294.96C228.839 294.961 228.839 294.962 228.839 294.963C228.839 294.964 228.839 294.965 228.839 294.966C228.839 294.967 228.839 294.967 228.839 294.968C228.839 294.969 228.839 294.97 228.839 294.971C228.839 294.972 228.839 294.973 228.839 294.974C228.839 294.974 228.839 294.975 228.839 294.976C228.839 294.977 228.839 294.978 228.839 294.979C228.839 294.98 228.839 294.981 228.839 294.981C228.839 294.982 228.839 294.983 228.839 294.984C228.839 294.985 228.839 294.986 228.839 294.987C228.839 294.988 228.839 294.988 228.839 294.989C228.839 294.99 228.839 294.991 228.839 294.992C228.839 294.993 228.839 294.994 228.839 294.995C228.839 294.995 228.839 294.996 228.839 294.997C228.839 294.998 228.839 294.999 228.839 295C228.839 295.001 228.839 295.002 228.839 295.002C228.839 295.003 228.839 295.004 228.839 295.005C228.839 295.006 228.839 295.007 228.839 295.008C228.839 295.009 228.839 295.009 228.839 295.01C228.839 295.011 228.839 295.012 228.839 295.013C228.839 295.014 228.839 295.015 228.839 295.016C228.839 295.016 228.839 295.017 228.839 295.018C228.839 295.019 228.839 295.02 228.839 295.021C228.839 295.022 228.839 295.023 228.839 295.023C228.839 295.024 228.839 295.025 228.839 295.026C228.839 295.027 228.839 295.028 228.839 295.029C228.839 295.03 228.839 295.03 228.839 295.031C228.839 295.032 228.839 295.033 228.839 295.034C228.839 295.035 228.839 295.036 228.839 295.037C228.839 295.037 228.839 295.038 228.839 295.039C228.839 295.04 228.839 295.041 228.839 295.042C228.839 295.043 228.839 295.044 228.839 295.044C228.839 295.045 228.839 295.046 228.839 295.047C228.839 295.048 228.839 295.049 228.839 295.05C228.839 295.051 228.839 295.051 228.839 295.052C228.839 295.053 228.839 295.054 228.839 295.055C228.839 295.056 228.839 295.057 228.839 295.058C228.839 295.058 228.839 295.059 228.839 295.06C228.839 295.061 228.839 295.062 228.839 295.063C228.839 295.064 228.839 295.065 228.839 295.065C228.839 295.066 228.839 295.067 228.839 295.068C228.839 295.069 228.839 295.07 228.839 295.071C228.839 295.072 228.839 295.072 228.839 295.073C228.839 295.074 228.839 295.075 228.839 295.076C228.839 295.077 228.839 295.078 228.839 295.079C228.839 295.079 228.839 295.08 228.839 295.081C228.839 295.082 228.839 295.083 228.839 295.084C228.839 295.085 228.839 295.086 228.839 295.086C228.839 295.087 228.839 295.088 228.839 295.089C228.839 295.09 228.839 295.091 228.839 295.092C228.839 295.093 228.839 295.094 228.839 295.094C228.839 295.095 228.839 295.096 228.839 295.097C228.839 295.098 228.839 295.099 228.839 295.1C228.839 295.101 228.839 295.101 228.839 295.102C228.839 295.103 228.839 295.104 228.839 295.105C228.839 295.106 228.839 295.107 228.839 295.108C228.839 295.108 228.839 295.109 228.839 295.11C228.839 295.111 228.839 295.112 228.839 295.113C228.839 295.114 228.839 295.115 228.839 295.115C228.839 295.116 228.839 295.117 228.839 295.118C228.839 295.119 228.839 295.12 228.839 295.121C228.839 295.122 228.839 295.122 228.839 295.123C228.839 295.124 228.839 295.125 228.839 295.126C228.839 295.127 228.839 295.128 228.839 295.129C228.839 295.129 228.839 295.13 228.839 295.131C228.839 295.132 228.839 295.133 228.839 295.134C228.839 295.135 228.839 295.136 228.839 295.136C228.839 295.137 228.839 295.138 228.839 295.139C228.839 295.14 228.839 295.141 228.839 295.142C228.839 295.143 228.839 295.143 228.839 295.144C228.839 295.145 228.839 295.146 228.839 295.147C228.839 295.148 228.839 295.149 228.839 295.15C228.839 295.15 228.839 295.151 228.839 295.152C228.839 295.153 228.839 295.154 228.839 295.155C228.839 295.156 228.839 295.157 228.839 295.158C228.839 295.158 228.839 295.159 228.839 295.16C228.839 295.161 228.839 295.162 228.839 295.163C228.839 295.164 228.839 295.165 228.839 295.165C228.839 295.166 228.839 295.167 228.839 295.168C228.839 295.169 228.839 295.17 228.839 295.171C228.839 295.172 228.839 295.172 228.839 295.173C228.839 295.174 228.839 295.175 228.839 295.176C228.839 295.177 228.839 295.178 228.839 295.179C228.839 295.179 228.839 295.18 228.839 295.181C228.839 295.182 228.839 295.183 228.839 295.184C228.839 295.185 228.839 295.186 228.839 295.186C228.839 295.187 228.839 295.188 228.839 295.189C228.839 295.19 228.839 295.191 228.839 295.192C228.839 295.193 228.839 295.193 228.839 295.194C228.839 295.195 228.839 295.196 228.839 295.197C228.839 295.198 228.839 295.199 228.839 295.2C228.839 295.2 228.839 295.201 228.839 295.202C228.839 295.203 228.839 295.204 228.839 295.205C228.839 295.206 228.839 295.207 228.839 295.208C228.839 295.208 228.839 295.209 228.839 295.21C228.839 295.211 228.839 295.212 228.839 295.213C228.839 295.214 228.839 295.215 228.839 295.215C228.839 295.216 228.839 295.217 228.839 295.218C228.839 295.219 228.839 295.22 228.839 295.221C228.839 295.222 228.839 295.222 228.839 295.223C228.839 295.224 228.839 295.225 228.839 295.226C228.839 295.227 228.839 295.228 228.839 295.229C228.839 295.229 228.839 295.23 228.839 295.231C228.839 295.232 228.839 295.233 228.839 295.234C228.839 295.235 228.839 295.236 228.839 295.236C228.839 295.237 228.839 295.238 228.839 295.239C228.839 295.24 228.839 295.241 228.839 295.242C228.839 295.243 228.839 295.243 228.839 295.244C228.839 295.245 228.839 295.246 228.839 295.247C228.839 295.248 228.839 295.249 228.839 295.25C228.839 295.25 228.839 295.251 228.839 295.252C228.839 295.253 228.839 295.254 228.839 295.255C228.839 295.256 228.839 295.257 228.839 295.258C228.839 295.258 228.839 295.259 228.839 295.26C228.839 295.261 228.839 295.262 228.839 295.263C228.839 295.264 228.839 295.265 228.839 295.265C228.839 295.266 228.839 295.267 228.839 295.268C228.839 295.269 228.839 295.27 228.839 295.271C228.839 295.272 228.839 295.272 228.839 295.273C228.839 295.274 228.839 295.275 228.839 295.276C228.839 295.277 228.839 295.278 228.839 295.279C228.839 295.279 228.839 295.28 228.839 295.281C228.839 295.282 228.839 295.283 228.839 295.284C228.839 295.285 228.839 295.286 228.839 295.286C228.839 295.287 228.839 295.288 228.839 295.289C228.839 295.29 228.839 295.291 228.839 295.292C228.839 295.293 228.839 295.293 228.839 295.294C228.839 295.295 228.839 295.296 228.839 295.297C228.839 295.298 228.839 295.299 228.839 295.3C228.839 295.301 228.839 295.301 228.839 295.302C228.839 295.303 228.839 295.304 228.839 295.305C228.839 295.306 228.839 295.307 228.839 295.308C228.839 295.308 228.839 295.309 228.839 295.31C228.839 295.311 228.839 295.312 228.839 295.313C228.839 295.314 228.839 295.315 228.839 295.315C228.839 295.316 228.839 295.317 228.839 295.318C228.839 295.319 228.839 295.32 228.839 295.321C228.839 295.322 228.839 295.322 228.839 295.323C228.839 295.324 228.839 295.325 228.839 295.326C228.839 295.327 228.839 295.328 228.839 295.329C228.839 295.329 228.839 295.33 228.839 295.331C228.839 295.332 228.839 295.333 228.839 295.334C228.839 295.335 228.839 295.336 228.839 295.337C228.839 295.337 228.839 295.338 228.839 295.339C228.839 295.34 228.839 295.341 228.839 295.342C228.839 295.343 228.839 295.344 228.839 295.344C228.839 295.345 228.839 295.346 228.839 295.347C228.839 295.348 228.839 295.349 228.839 295.35C228.839 295.351 228.839 295.351 228.839 295.352C228.839 295.353 228.839 295.354 228.839 295.355C228.839 295.356 228.839 295.357 228.839 295.358C228.839 295.358 228.839 295.359 228.839 295.36C228.839 295.361 228.839 295.362 228.839 295.363C228.839 295.364 228.839 295.365 228.839 295.365C228.839 295.366 228.839 295.367 228.839 295.368C228.839 295.369 228.839 295.37 228.839 295.371C228.839 295.372 228.839 295.373 228.839 295.373C228.839 295.374 228.839 295.375 228.839 295.376C228.839 295.377 228.839 295.378 228.839 295.379C228.839 295.38 228.839 295.38 228.839 295.381C228.839 295.382 228.839 295.383 228.839 295.384C228.839 295.385 228.839 295.386 228.839 295.387C228.839 295.387 228.839 295.388 228.839 295.389C228.839 295.39 228.839 295.391 228.839 295.392C228.839 295.393 228.839 295.394 228.839 295.394C228.839 295.395 228.839 295.396 228.839 295.397C228.839 295.398 228.839 295.399 228.839 295.4C228.839 295.401 228.839 295.401 228.839 295.402C228.839 295.403 228.839 295.404 228.839 295.405C228.839 295.406 228.839 295.407 228.839 295.408C228.839 295.408 228.839 295.409 228.839 295.41C228.839 295.411 228.839 295.412 228.839 295.413C228.839 295.414 228.839 295.415 228.839 295.416C228.839 295.416 228.839 295.417 228.839 295.418C228.839 295.419 228.839 295.42 228.839 295.421C228.839 295.422 228.839 295.423 228.839 295.423C228.839 295.424 228.839 295.425 228.839 295.426C228.839 295.427 228.839 295.428 228.839 295.429C228.839 295.43 228.839 295.43 228.839 295.431C228.839 295.432 228.839 295.433 228.839 295.434C228.839 295.435 228.839 295.436 228.839 295.437C228.839 295.437 228.839 295.438 228.839 295.439C228.839 295.44 228.839 295.441 228.839 295.442C228.839 295.443 228.839 295.444 228.839 295.444C228.839 295.445 228.839 295.446 228.839 295.447C228.839 295.448 228.839 295.449 228.839 295.45C228.839 295.451 228.839 295.452 228.839 295.452C228.839 295.453 228.839 295.454 228.839 295.455C228.839 295.456 228.839 295.457 228.839 295.458C228.839 295.459 228.839 295.459 228.839 295.46C228.839 295.461 228.839 295.462 228.839 295.463C228.839 295.464 228.839 295.465 228.839 295.466C228.839 295.466 228.839 295.467 228.839 295.468C228.839 295.469 228.839 295.47 228.839 295.471C228.839 295.472 228.839 295.473 228.839 295.473C228.839 295.474 228.839 295.475 228.839 295.476C228.839 295.477 228.839 295.478 228.839 295.479C228.839 295.48 228.839 295.48 228.839 295.481C228.839 295.482 228.839 295.483 228.839 295.484C228.839 295.485 228.839 295.486 228.839 295.487C228.839 295.488 228.839 295.488 228.839 295.489C228.839 295.49 228.839 295.491 228.839 295.492C228.839 295.493 228.839 295.494 228.839 295.495C228.839 295.495 228.839 295.496 228.839 295.497C228.839 295.498 228.839 295.499 228.839 295.5C228.839 295.501 228.839 295.502 228.839 295.502C228.839 295.503 228.839 295.504 228.839 295.505C228.839 295.506 228.839 295.507 228.839 295.508C228.839 295.509 228.839 295.509 228.839 295.51C228.839 295.511 228.839 295.512 228.839 295.513C228.839 295.514 228.839 295.515 228.839 295.516C228.839 295.516 228.839 295.517 228.839 295.518C228.839 295.519 228.839 295.52 228.839 295.521C228.839 295.522 228.839 295.523 228.839 295.524C228.839 295.524 228.839 295.525 228.839 295.526C228.839 295.527 228.839 295.528 228.839 295.529C228.839 295.53 228.839 295.531 228.839 295.531C228.839 295.532 228.839 295.533 228.839 295.534C228.839 295.535 228.839 295.536 228.839 295.537C228.839 295.538 228.839 295.538 228.839 295.539C228.839 295.54 228.839 295.541 228.839 295.542C228.839 295.543 228.839 295.544 228.839 295.545C228.839 295.545 228.839 295.546 228.839 295.547C228.839 295.548 228.839 295.549 228.839 295.55C228.839 295.551 228.839 295.552 228.839 295.552C228.839 295.553 228.839 295.554 228.839 295.555C228.839 295.556 228.839 295.557 228.839 295.558C228.839 295.559 228.839 295.56 228.839 295.56C228.839 295.561 228.839 295.562 228.839 295.563C228.839 295.564 228.839 295.565 228.839 295.566C228.839 295.567 228.839 295.567 228.839 295.568C228.839 295.569 228.839 295.57 228.839 295.571C228.839 295.572 228.839 295.573 228.839 295.574C228.839 295.574 228.839 295.575 228.839 295.576C228.839 295.577 228.839 295.578 228.839 295.579C228.839 295.58 228.839 295.581 228.839 295.581C228.839 295.582 228.839 295.583 228.839 295.584C228.839 295.585 228.839 295.586 228.839 295.587C228.839 295.588 228.839 295.588 228.839 295.589C228.839 295.59 228.839 295.591 228.839 295.592C228.839 295.593 228.839 295.594 228.839 295.595C228.839 295.595 228.839 295.596 228.839 295.597C228.839 295.598 228.839 295.599 228.839 295.6C228.839 295.601 228.839 295.602 228.839 295.603C228.839 295.603 228.839 295.604 228.839 295.605C228.839 295.606 228.839 295.607 228.839 295.608C228.839 295.609 228.839 295.61 228.839 295.61C228.839 295.611 228.839 295.612 228.839 295.613C228.839 295.614 228.839 295.615 228.839 295.616C228.839 295.617 228.839 295.617 228.839 295.618C228.839 295.619 228.839 295.62 228.839 295.621C228.839 295.622 228.839 295.623 228.839 295.624C228.839 295.624 228.839 295.625 228.839 295.626C228.839 295.627 228.839 295.628 228.839 295.629C228.839 295.63 228.839 295.631 228.839 295.631C228.839 295.632 228.839 295.633 228.839 295.634C228.839 295.635 228.839 295.636 228.839 295.637C228.839 295.638 228.839 295.638 228.839 295.639C228.839 295.64 228.839 295.641 228.839 295.642C228.839 295.643 228.839 295.644 228.839 295.645C228.839 295.646 228.839 295.646 228.839 295.647C228.839 295.648 228.839 295.649 228.839 295.65C228.839 295.651 228.839 295.652 228.839 295.653C228.839 295.653 228.839 295.654 228.839 295.655C228.839 295.656 228.839 295.657 228.839 295.658C228.839 295.659 228.839 295.66 228.839 295.66C228.839 295.661 228.839 295.662 228.839 295.663C228.839 295.664 228.839 295.665 228.839 295.666C228.839 295.667 228.839 295.667 228.839 295.668C228.839 295.669 228.839 295.67 228.839 295.671C228.839 295.672 228.839 295.673 228.839 295.674C228.839 295.674 228.839 295.675 228.839 295.676C228.839 295.677 228.839 295.678 228.839 295.679C228.839 295.68 228.839 295.681 228.839 295.681C228.839 295.682 228.839 295.683 228.839 295.684C228.839 295.685 228.839 295.686 228.839 295.687C228.839 295.688 228.839 295.689 228.839 295.689C228.839 295.69 228.839 295.691 228.839 295.692C228.839 295.693 228.839 295.694 228.839 295.695C228.839 295.696 228.839 295.696 228.839 295.697C228.839 295.698 228.839 295.699 228.839 295.7C228.839 295.701 228.839 295.702 228.839 295.703C228.839 295.703 228.839 295.704 228.839 295.705C228.839 295.706 228.839 295.707 228.839 295.708C228.839 295.709 228.839 295.71 228.839 295.71C228.839 295.711 228.839 295.712 228.839 295.713C228.839 295.714 228.839 295.715 228.839 295.716C228.839 295.717 228.839 295.717 228.839 295.718C228.839 295.719 228.839 295.72 228.839 295.721C228.839 295.722 228.839 295.723 228.839 295.724C228.839 295.724 228.839 295.725 228.839 295.726C228.839 295.727 228.839 295.728 228.839 295.729C228.839 295.73 228.839 295.731 228.839 295.731C228.839 295.732 228.839 295.733 228.839 295.734C228.839 295.735 228.839 295.736 228.839 295.737C228.839 295.738 228.839 295.738 228.839 295.739C228.839 295.74 228.839 295.741 228.839 295.742C228.839 295.743 228.839 295.744 228.839 295.745C228.839 295.746 228.839 295.746 228.839 295.747C228.839 295.748 228.839 295.749 228.839 295.75C228.839 295.751 228.839 295.752 228.839 295.753C228.839 295.753 228.839 295.754 228.839 295.755C228.839 295.756 228.839 295.757 228.839 295.758C228.839 295.759 228.839 295.76 228.839 295.76C228.839 295.761 228.839 295.762 228.839 295.763C228.839 295.764 228.839 295.765 228.839 295.766C228.839 295.767 228.839 295.767 228.839 295.768C228.839 295.769 228.839 295.77 228.839 295.771C228.839 295.772 228.839 295.773 228.839 295.774C228.839 295.774 228.839 295.775 228.839 295.776C228.839 295.777 228.839 295.778 228.839 295.779C228.839 295.78 228.839 295.781 228.839 295.781C228.839 295.782 228.839 295.783 228.839 295.784C228.839 295.785 228.839 295.786 228.839 295.787C228.839 295.788 228.839 295.788 228.839 295.789C228.839 295.79 228.839 295.791 228.839 295.792C228.839 295.793 228.839 295.794 228.839 295.795C228.839 295.795 228.839 295.796 228.839 295.797C228.839 295.798 228.839 295.799 228.839 295.8C228.839 295.801 228.839 295.802 228.839 295.802C228.839 295.803 228.839 295.804 228.839 295.805C228.839 295.806 228.839 295.807 228.839 295.808C228.839 295.809 228.839 295.809 228.839 295.81C228.839 295.811 228.839 295.812 228.839 295.813C228.839 295.814 228.839 295.815 228.839 295.816C228.839 295.817 228.839 295.817 228.839 295.818C228.839 295.819 228.839 295.82 228.839 295.821C228.839 295.822 228.839 295.823 228.839 295.824C228.839 295.824 228.839 295.825 228.839 295.826C228.839 295.827 228.839 295.828 228.839 295.829C228.839 295.83 228.839 295.831 228.839 295.831C228.839 295.832 228.839 295.833 228.839 295.834C228.839 295.835 228.839 295.836 228.839 295.837C228.839 295.838 228.839 295.838 228.839 295.839C228.839 295.84 228.839 295.841 228.839 295.842C228.839 295.843 228.839 295.844 228.839 295.845C228.839 295.845 228.839 295.846 228.839 295.847C228.839 295.848 228.839 295.849 228.839 295.85C228.839 295.851 228.839 295.852 228.839 295.852C228.839 295.853 228.839 295.854 228.839 295.855C228.839 295.856 228.839 295.857 228.839 295.858C228.839 295.859 228.839 295.859 228.839 295.86C228.839 295.861 228.839 295.862 228.839 295.863C228.839 295.864 228.839 295.865 228.839 295.866C228.839 295.866 228.839 295.867 228.839 295.868C228.839 295.869 228.839 295.87 228.839 295.871C228.839 295.872 228.839 295.873 228.839 295.873C228.839 295.874 228.839 295.875 228.839 295.876C228.839 295.877 228.839 295.878 228.839 295.879C228.839 295.88 228.839 295.88 228.839 295.881C228.839 295.882 228.839 295.883 228.839 295.884C228.839 295.885 228.839 295.886 228.839 295.887C228.839 295.887 228.839 295.888 228.839 295.889C228.839 295.89 228.839 295.891 228.839 295.892C228.839 295.893 228.839 295.894 228.839 295.894C228.839 295.895 228.839 295.896 228.839 295.897C228.839 295.898 228.839 295.899 228.839 295.9C228.839 295.901 228.839 295.901 228.839 295.902C228.839 295.903 228.839 295.904 228.839 295.905C228.839 295.906 228.839 295.907 228.839 295.908C228.839 295.908 228.839 295.909 228.839 295.91C228.839 295.911 228.839 295.912 228.839 295.913C228.839 295.914 228.839 295.915 228.839 295.915C228.839 295.916 228.839 295.917 228.839 295.918C228.839 295.919 228.839 295.92 228.839 295.921C228.839 295.922 228.839 295.922 228.839 295.923C228.839 295.924 228.839 295.925 228.839 295.926C228.839 295.927 228.839 295.928 228.839 295.929C228.839 295.929 228.839 295.93 228.839 295.931C228.839 295.932 228.839 295.933 228.839 295.934C228.839 295.935 228.839 295.936 228.839 295.936C228.839 295.937 228.839 295.938 228.839 295.939C228.839 295.94 228.839 295.941 228.839 295.942C228.839 295.943 228.839 295.943 228.839 295.944C228.839 295.945 228.839 295.946 228.839 295.947C228.839 295.948 228.839 295.949 228.839 295.95C228.839 295.95 228.839 295.951 228.839 295.952C228.839 295.953 228.839 295.954 228.839 295.955C228.839 295.956 228.839 295.957 228.839 295.957C228.839 295.958 228.839 295.959 228.839 295.96C228.839 295.961 228.839 295.962 228.839 295.963C228.839 295.964 228.839 295.964 228.839 295.965C228.839 295.966 228.839 295.967 228.839 295.968C228.839 295.969 228.839 295.97 228.839 295.971C228.839 295.971 228.839 295.972 228.839 295.973C228.839 295.974 228.839 295.975 228.839 295.976C228.839 295.977 228.839 295.978 228.839 295.978C228.839 295.979 228.839 295.98 228.839 295.981C228.839 295.982 228.839 295.983 228.839 295.984C228.839 295.985 228.839 295.985 228.839 295.986C228.839 295.987 228.839 295.988 228.839 295.989C228.839 295.99 228.839 295.991 228.839 295.992C228.839 295.992 228.839 295.993 228.839 295.994C228.839 295.995 228.839 295.996 228.839 295.997C228.839 295.998 228.839 295.999 228.839 295.999C228.839 296 228.839 296.001 228.839 296.002C228.839 296.003 228.839 296.004 228.839 296.005C228.839 296.006 228.839 296.006 228.839 296.007C228.839 296.008 228.839 296.009 228.839 296.01C228.839 296.011 228.839 296.012 228.839 296.012C228.839 296.013 228.839 296.014 228.839 296.015C228.839 296.016 228.839 296.017 228.839 296.018C228.839 296.019 228.839 296.019 228.839 296.02C228.839 296.021 228.839 296.022 228.839 296.023C228.839 296.024 228.839 296.025 228.839 296.026C228.839 296.026 228.839 296.027 228.839 296.028C228.839 296.029 228.839 296.03 228.839 296.031C228.839 296.032 228.839 296.033 228.839 296.033C228.839 296.034 228.839 296.035 228.839 296.036C228.839 296.037 228.839 296.038 228.839 296.039C228.839 296.04 228.839 296.04 228.839 296.041C228.839 296.042 228.839 296.043 228.839 296.044C228.839 296.045 228.839 296.046 228.839 296.047C228.839 296.047 228.839 296.048 228.839 296.049C228.839 296.05 228.839 296.051 228.839 296.052C228.839 296.053 228.839 296.054 228.839 296.054C228.839 296.055 228.839 296.056 228.839 296.057C228.839 296.058 228.839 296.059 228.839 296.06C228.839 296.061 228.839 296.061 228.839 296.062C228.839 296.063 228.839 296.064 228.839 296.065C228.839 296.066 228.839 296.067 228.839 296.068C228.839 296.068 228.839 296.069 228.839 296.07C228.839 296.071 228.839 296.072 228.839 296.073C228.839 296.074 228.839 296.074 228.839 296.075C228.839 296.076 228.839 296.077 228.839 296.078C228.839 296.079 228.839 296.08 228.839 296.081C228.839 296.081 228.839 296.082 228.839 296.083C228.839 296.084 228.839 296.085 228.839 296.086C228.839 296.087 228.839 296.088 228.839 296.088C228.839 296.089 228.839 296.09 228.839 296.091C228.839 296.092 228.839 296.093 228.839 296.094C228.839 296.095 228.839 296.095 228.839 296.096C228.839 296.097 228.839 296.098 228.839 296.099C228.839 296.1 228.839 296.101 228.839 296.102C228.839 296.102 228.839 296.103 228.839 296.104C228.839 296.105 228.839 296.106 228.839 296.107C228.839 296.108 228.839 296.109 228.839 296.109C228.839 296.11 228.839 296.111 228.839 296.112C228.839 296.113 228.839 296.114 228.839 296.115H319.839ZM319.839 294.769L410.837 295.407C410.861 292.012 410.826 288.777 410.798 286.329C410.768 283.635 410.746 281.837 410.75 280.094C410.756 276.618 410.882 275.893 410.824 276.359L320.518 265.142L230.212 253.926C228.13 270.689 228.852 292.618 228.842 294.131L319.839 294.769ZM320.518 265.142L287.336 349.877L318.291 361.999L351.473 277.265L384.656 192.53L353.701 180.408L320.518 265.142ZM351.473 277.265C319.77 362.564 319.771 362.564 319.772 362.564C319.772 362.565 319.774 362.565 319.775 362.566C319.778 362.567 319.783 362.568 319.789 362.57C319.8 362.575 319.817 362.581 319.84 362.59C319.886 362.607 319.953 362.632 320.042 362.665C320.22 362.731 320.484 362.829 320.83 362.957C321.521 363.214 322.539 363.592 323.85 364.079C326.471 365.052 330.265 366.461 334.959 368.202C344.345 371.684 357.339 376.499 371.767 381.834C400.54 392.473 435.302 405.282 458.478 413.672L489.452 328.105L520.427 242.539C497.906 234.386 463.678 221.775 434.885 211.129C420.531 205.822 407.598 201.029 398.254 197.563C393.583 195.83 389.81 194.429 387.206 193.463C385.904 192.979 384.895 192.604 384.212 192.351C383.871 192.224 383.611 192.127 383.437 192.063C383.35 192.03 383.284 192.006 383.241 191.99C383.219 191.982 383.203 191.975 383.192 191.971C383.187 191.97 383.183 191.968 383.18 191.967C383.179 191.967 383.178 191.966 383.177 191.966C383.177 191.966 383.176 191.966 351.473 277.265ZM489.452 328.105L431.241 398.051C418.486 387.436 411.708 375.868 408.495 369.523C405.038 362.697 403.178 356.832 402.209 353.358C400.314 346.566 399.739 341.235 399.559 339.442C399.322 337.089 399.263 335.375 399.245 334.717C399.234 334.309 399.23 334.004 399.229 333.824C399.228 333.642 399.229 333.534 399.229 333.515C399.229 333.502 399.227 333.656 399.216 334.092C399.202 334.614 399.19 334.966 399.164 335.864C399.144 336.524 399.108 337.76 399.09 339.066C399.077 339.982 399.035 342.933 399.222 346.443L490.093 341.605L580.965 336.767C581.178 340.771 580.999 344.112 581.084 341.251C581.107 340.489 581.199 337.752 581.222 335.087C581.241 332.878 581.27 327.428 580.642 321.201C580.349 318.293 579.619 311.994 577.512 304.443C576.437 300.588 574.457 294.396 570.864 287.302C567.516 280.69 560.587 268.915 547.664 258.159L489.452 328.105ZM490.093 341.605L399.229 346.574C399.401 349.715 399.659 352.482 399.867 354.497C400.068 356.446 400.295 358.364 400.413 359.376C400.561 360.651 400.613 361.121 400.641 361.403C400.665 361.653 400.603 361.095 400.557 360.047L491.47 356.053L582.382 352.059C582.235 348.723 581.983 345.789 581.77 343.619C581.56 341.481 581.327 339.487 581.188 338.296C581.018 336.842 580.955 336.294 580.906 335.818C580.863 335.408 580.911 335.792 580.958 336.635L490.093 341.605ZM491.47 356.053L400.554 359.975C401.287 376.972 401.84 393.95 402.557 412.16L493.487 408.579L584.416 404.998C583.776 388.74 583.122 369.225 582.385 352.132L491.47 356.053ZM493.487 408.579L402.557 412.159C402.521 411.241 402.525 410.662 402.525 410.655C402.525 410.64 402.525 410.71 402.521 410.919C402.518 411.146 402.513 411.402 402.504 411.851C402.49 412.582 402.459 414.093 402.451 415.713C402.442 417.405 402.455 419.667 402.557 422.264L493.487 418.677L584.416 415.089C584.452 416.014 584.449 416.596 584.449 416.605C584.448 416.62 584.449 416.551 584.452 416.342C584.456 416.114 584.461 415.859 584.469 415.409C584.484 414.677 584.515 413.166 584.523 411.546C584.531 409.853 584.518 407.593 584.416 404.998L493.487 408.579ZM493.487 418.677L402.558 422.276C402.669 425.089 402.868 427.488 403.022 429.13C403.174 430.755 403.338 432.193 403.413 432.854C403.522 433.82 403.505 433.671 403.486 433.485C403.468 433.304 403.31 431.757 403.225 429.557L494.159 426.083L585.093 422.61C584.971 419.423 584.722 416.773 584.587 415.415C584.451 414.053 584.288 412.651 584.252 412.33C584.181 411.703 584.197 411.819 584.226 412.126C584.256 412.45 584.354 413.534 584.416 415.077L493.487 418.677ZM494.159 426.083L403.229 429.641C403.178 428.351 403.22 427.463 403.182 429.337C403.157 430.575 403.048 434.763 403.219 439.474L494.159 436.187L585.1 432.9C585.144 434.135 585.104 435.037 585.146 432.976C585.174 431.55 585.278 427.349 585.09 422.526L494.159 426.083ZM494.159 436.187L403.215 439.386C403.343 443.012 403.638 446.037 403.858 447.996C404.079 449.965 404.316 451.631 404.414 452.324C404.504 452.955 404.473 452.733 404.513 453.01C404.525 453.094 404.492 452.868 404.445 452.497C404.399 452.135 404.303 451.356 404.204 450.32C404.108 449.324 403.965 447.621 403.888 445.466L494.832 442.248L585.775 439.031C585.686 436.52 585.514 434.429 585.379 433.016C585.24 431.562 585.093 430.339 584.987 429.51C584.88 428.672 584.78 427.955 584.721 427.533C584.689 427.312 584.66 427.107 584.641 426.971C584.617 426.811 584.607 426.736 584.595 426.654C584.541 426.277 584.625 426.829 584.72 427.681C584.815 428.525 585.013 430.435 585.103 432.989L494.159 436.187ZM494.832 442.248L403.889 445.487C403.963 447.552 404.06 449.488 404.143 451.042C404.185 451.828 404.228 452.6 404.265 453.267C404.304 453.965 404.336 454.552 404.367 455.126C404.505 457.692 404.504 458.264 404.504 458.074H495.504H586.504C586.504 452.986 586.258 448.204 586.105 445.361C585.905 441.645 585.826 440.473 585.774 439.01L494.832 442.248ZM495.504 458.074H404.504V468.851H495.504H586.504V458.074H495.504ZM495.504 468.851L559.868 404.522L559.862 404.515L495.498 468.844L431.133 533.174L431.14 533.18L495.504 468.851Z" fill="black" mask="url(#path-21-inside-1_40_12720)"/>
<path d="M510.749 334.45C510.165 334.915 510.309 335.934 509.888 336.437C509.455 336.952 508.682 337.185 508.531 337.417C505.647 341.693 512.132 346.585 516.072 341.951C520.848 336.33 513.275 332.463 510.749 334.45Z" fill="#6C6CCD"/>
<path d="M417.532 282.496C417.236 285.376 423.15 288.538 426.009 286.533C426.386 286.268 427.398 283.59 427.486 282.936C428.541 275.228 418.386 274.108 417.532 282.49V282.496Z" fill="#6C6CCD"/>
<path d="M516.864 298.988C513.062 295.379 505.081 300.466 508.248 305.923C513.131 314.323 521.583 303.477 516.864 298.988Z" fill="#6C6CCD"/>
<path d="M580.666 242.954C584.279 238.854 581.15 234.139 576.066 235.66C568.745 237.855 573.263 251.348 580.666 242.954Z" fill="#6C6CCD"/>
<path d="M543.797 265.035C547.656 265.67 550.754 259.502 547.034 256.704C546.411 256.233 545.651 255.346 544.859 255.233C540.749 254.636 535.81 263.721 543.797 265.035Z" fill="#6C6CCD"/>
<path d="M496.667 225.519C493.449 226.11 490.376 231.102 493.43 233.881C500.299 240.131 505.314 223.934 496.667 225.519Z" fill="#6C6CCD"/>
<path d="M493.097 254.328C488.02 260.314 495.429 266.362 500.179 261.414C502.58 258.911 501.323 257.296 499.815 255.434C497.704 252.838 496.019 250.876 493.097 254.328Z" fill="#6C6CCD"/>
<path d="M439.036 239.967C436.082 244.563 443.013 249.103 446.193 246.11C451.246 241.363 443.862 232.454 439.036 239.967Z" fill="#6C6CCD"/>
<path d="M456.694 254.605C450.938 260.377 457.963 267.89 462.953 262.885C467.352 258.471 461.765 249.512 456.694 254.605Z" fill="#6C6CCD"/>
<path d="M694.703 309.916C689.858 302.251 684.309 292.462 678.238 285.338C658.808 262.527 630.944 231.184 606.192 214.666C599.895 210.466 592.31 206.694 585.102 204.456C586.61 195.798 597.356 179.922 579.629 182.324C574.979 182.952 567.897 187.058 562.976 188.221C555.385 190.007 537.161 192.157 529.495 191.749C526.924 191.61 517.58 189.466 516.361 189.737C516.059 189.799 511.503 192.434 511.02 192.805C506.237 196.439 509.348 202.777 508.965 203.198C496.912 207.172 484.432 210.271 472.637 215.006C459.509 220.281 440.129 228.537 428.196 235.522C427.504 235.931 425.952 237.886 424.388 238.779C422.477 239.867 419.7 239.835 418.116 241.916C423.018 246.462 422.238 251.134 415.106 251.706C409.664 252.146 407.226 250.643 401.281 252.354L364.934 279.289C407.012 294.97 448.952 311.142 491.388 325.829C491.734 336.367 492.35 346.905 492.815 357.405C495.008 357.99 497.924 357.958 500.513 358.794C503.208 359.668 513.1 363.875 514.206 365.975C514.891 367.276 515.506 373.325 515.689 375.261C516.971 388.446 515.871 401.908 514.872 415.08C514.815 415.828 514.765 416.608 515.073 417.293C515.72 418.714 517.549 419.041 519.101 419.192C522.89 419.544 526.309 421.38 530.173 421.38C535.898 422.097 543.087 422.543 548.674 422.732C562.291 423.203 575.921 421.72 589.363 421.355C604.602 420.946 620.626 423.411 635.526 420.406C664.376 414.59 702.413 405.064 714.73 374.4C723.169 353.387 705.643 327.225 694.703 309.928V309.916ZM431.589 281.616C431.419 284.904 429.019 288.538 425.688 289.23C415.716 291.286 411.989 281.911 418.317 274.787C422.659 269.896 431.922 275.278 431.595 281.622L431.589 281.616ZM438.615 247.644C431.828 242.388 440.06 229.926 448.179 236.396C456.185 242.784 445.785 253.196 438.615 247.644ZM454.469 265.457C448.022 259.924 456.895 245.984 464.335 252.561C471.505 258.899 461.646 271.612 454.469 265.457ZM611.734 238.351C624.899 234.503 624.629 254.058 613.695 252.989C603.998 252.046 607.203 239.672 611.734 238.351ZM570.24 239.257C570.423 238.15 572.339 234.95 573.106 234.378C576.776 231.636 585.398 231.498 585.561 237.848C585.869 249.851 568.299 251.209 570.234 239.257H570.24ZM574.08 290.185C575.902 290.022 577.555 291.386 578.655 292.719C584.568 299.918 576.21 310.645 568.255 305.143C560.594 299.849 566.332 290.89 574.08 290.179V290.185ZM545.632 252.976C556.874 253.529 552.494 268.5 542.245 267.198C541.761 267.135 537.595 265.815 537.381 265.671C534.333 263.552 538.902 252.643 545.632 252.976ZM512.811 294.932C516.901 294.077 520.622 296.303 521.068 300.553C521.344 303.219 517.926 310.4 515.343 310.922C501.87 313.631 503.164 296.944 512.811 294.932ZM491.08 263.841C484.381 256.962 496.397 244.538 502.693 252.542C507.67 258.874 497.389 270.323 491.08 263.841ZM494.656 237.377C488.956 235.88 488.919 230.473 490.967 225.927C493.173 221.023 499.476 221.413 502.699 224.946C503.146 225.437 504.025 227.311 504.12 227.939C504.83 232.498 499.828 238.729 494.656 237.371V237.377ZM520.144 343.679C518.428 346.352 514.853 348.32 511.635 347.703C498.288 345.157 507.312 325.527 518.051 332.481C522.287 335.223 522.802 339.548 520.144 343.679ZM567.337 412.112C560.745 414.973 555.548 403.014 561.487 400.185C561.864 400.003 566.948 398.657 567.293 398.638C574.281 398.349 573.257 409.541 567.337 412.106V412.112ZM600.963 370.672C600.366 371.42 596.338 373.866 595.289 374.079C584.185 376.362 587.98 360.561 596.118 360.033C601.742 359.662 603.615 367.339 600.963 370.672ZM609.139 347.527C606.782 348.294 600.787 348.955 598.054 349.231C583.827 350.646 568.72 349.577 554.059 351.338C547.989 352.067 539.405 353.199 533.598 354.777C530.343 355.657 527.025 358.134 523.764 357.732C523.764 356.55 525.052 355.688 525.982 355.236C534.264 351.168 544.979 350.438 554.059 349.319C560.507 348.527 567.098 347.754 573.577 347.301C574.005 343.686 578.938 337.461 582.708 337.222C587.157 336.939 592.216 342.252 589.734 346.628C589.828 346.628 590.651 347.584 591.286 347.276L611.263 345.283C611.52 346.773 610.264 347.163 609.139 347.527ZM592.737 279.302C592.517 278.623 591.977 277.007 592.75 276.592C595.584 279.78 596.52 284.263 598.871 287.978C606.575 300.145 616.472 307.602 625.76 317.637C626.282 318.196 629.317 321.786 629.424 322.05C630.31 324.144 627.275 322.226 626.74 321.705C618.998 326.238 611.338 319.227 614.625 310.928C607.857 304.188 595.691 288.387 592.731 279.295L592.737 279.302ZM615.932 413.672C611.564 406.252 624.202 399.324 628.55 404.077C635.984 412.207 620.035 420.644 615.932 413.672ZM631.296 285.464C639.83 284.369 642.985 298.309 633.068 299.472C622.763 300.679 622.48 286.595 631.296 285.464ZM635.871 364.428C630.725 358.782 638.265 349.709 645.542 355.085C653.039 360.624 642.796 372.03 635.871 364.428ZM676.919 321.409C683.039 316.272 690.09 323.075 686.106 330.262C681.299 338.926 666.732 329.96 676.919 321.409ZM695.061 380.298C690.97 389.238 675.938 382.09 684.855 373.117C690.304 367.635 698.479 372.834 695.061 380.298Z" fill="#FCBFB7"/>
<path d="M575.588 347.301C580.075 347.018 584.587 346.842 589.049 346.628C587.277 336.335 577.863 338.68 575.588 347.301Z" fill="#6C6CCD"/>
<path d="M573.747 304.081C579.56 302.899 577.693 291.789 571.529 293.7C570.963 293.876 567.802 296.724 567.702 296.957C566.03 300.912 569.65 304.911 573.741 304.074L573.747 304.081Z" fill="#6C6CCD"/>
<path d="M624.723 320.366C624.189 320.089 617.157 313.424 615.976 312.286C613.908 317.794 619.137 323.214 624.723 320.366Z" fill="#6C6CCD"/>
<path d="M612.985 250.348C619.124 251.222 622.373 238.823 614.461 240.363C608.561 241.507 608.46 249.706 612.985 250.348Z" fill="#6C6CCD"/>
<path d="M630.071 296.492C635.758 298.321 637.882 291.6 635.318 288.884C630.618 283.911 622.373 294.008 630.071 296.492Z" fill="#6C6CCD"/>
<path d="M679.011 321.824C678.515 322 675.976 325.319 675.7 325.942C673.481 330.997 683.894 333.474 685.145 327.967C686.106 323.729 683.423 320.283 679.005 321.83L679.011 321.824Z" fill="#6C6CCD"/>
<path d="M415.929 349.13C414.578 342.585 405.642 339.146 399.779 341.422C392.81 344.119 390.837 358.253 395.594 363.422C399.195 367.326 407.251 367.867 411.467 364.66C415.621 361.504 416.934 354.009 415.929 349.136V349.13Z" fill="#0F0D0C"/>
</svg>
